<mxfile host="app.diagrams.net" agent="Mozilla/5.0 (Windows NT 10.0; Win64; x64) AppleWebKit/537.36 (KHTML, like Gecko) Chrome/127.0.0.0 Safari/537.36" version="24.7.5" pages="2">
  <diagram name="Page-1" id="MwzUUmP2Cs7VepNdidZN">
    <mxGraphModel grid="1" page="1" gridSize="10" guides="1" tooltips="1" connect="1" arrows="1" fold="1" pageScale="1" pageWidth="827" pageHeight="1169" math="0" shadow="0">
      <root>
        <mxCell id="0" />
        <mxCell id="1" parent="0" />
        <mxCell id="PIMqcbHy_xt0Nr5fmMW7-18" value="" style="edgeStyle=orthogonalEdgeStyle;rounded=0;orthogonalLoop=1;jettySize=auto;html=1;" edge="1" parent="1" source="PIMqcbHy_xt0Nr5fmMW7-3" target="PIMqcbHy_xt0Nr5fmMW7-5">
          <mxGeometry relative="1" as="geometry" />
        </mxCell>
        <mxCell id="PIMqcbHy_xt0Nr5fmMW7-3" value="Sample dan Pelabelan Data Latih" style="rounded=1;whiteSpace=wrap;html=1;" vertex="1" parent="1">
          <mxGeometry x="480" y="-20" width="120" height="40" as="geometry" />
        </mxCell>
        <mxCell id="PIMqcbHy_xt0Nr5fmMW7-22" value="" style="edgeStyle=orthogonalEdgeStyle;rounded=0;orthogonalLoop=1;jettySize=auto;html=1;" edge="1" parent="1" source="PIMqcbHy_xt0Nr5fmMW7-4" target="PIMqcbHy_xt0Nr5fmMW7-9">
          <mxGeometry relative="1" as="geometry" />
        </mxCell>
        <mxCell id="PIMqcbHy_xt0Nr5fmMW7-4" value="&lt;div&gt;Ekstraksi Fitur Graf Twit&lt;/div&gt;" style="rounded=1;whiteSpace=wrap;html=1;" vertex="1" parent="1">
          <mxGeometry x="320" y="60" width="120" height="40" as="geometry" />
        </mxCell>
        <mxCell id="PIMqcbHy_xt0Nr5fmMW7-5" value="Ekstraksi Fitur Non-Teks Twit" style="rounded=1;whiteSpace=wrap;html=1;" vertex="1" parent="1">
          <mxGeometry x="480" y="60" width="120" height="40" as="geometry" />
        </mxCell>
        <mxCell id="PIMqcbHy_xt0Nr5fmMW7-24" value="" style="edgeStyle=orthogonalEdgeStyle;rounded=0;orthogonalLoop=1;jettySize=auto;html=1;" edge="1" parent="1" source="PIMqcbHy_xt0Nr5fmMW7-8" target="PIMqcbHy_xt0Nr5fmMW7-11">
          <mxGeometry relative="1" as="geometry" />
        </mxCell>
        <mxCell id="PIMqcbHy_xt0Nr5fmMW7-8" value="Ekstraksi Fitur Teks Twit" style="rounded=1;whiteSpace=wrap;html=1;" vertex="1" parent="1">
          <mxGeometry x="640" y="60" width="120" height="40" as="geometry" />
        </mxCell>
        <mxCell id="PIMqcbHy_xt0Nr5fmMW7-29" value="" style="edgeStyle=orthogonalEdgeStyle;rounded=0;orthogonalLoop=1;jettySize=auto;html=1;" edge="1" parent="1" source="PIMqcbHy_xt0Nr5fmMW7-9" target="PIMqcbHy_xt0Nr5fmMW7-12">
          <mxGeometry relative="1" as="geometry" />
        </mxCell>
        <mxCell id="PIMqcbHy_xt0Nr5fmMW7-9" value="&lt;div&gt;Data Latih Tabular Twit&lt;br&gt;&lt;/div&gt;" style="rounded=1;whiteSpace=wrap;html=1;" vertex="1" parent="1">
          <mxGeometry x="400" y="140" width="120" height="40" as="geometry" />
        </mxCell>
        <mxCell id="PIMqcbHy_xt0Nr5fmMW7-30" value="" style="edgeStyle=orthogonalEdgeStyle;rounded=0;orthogonalLoop=1;jettySize=auto;html=1;" edge="1" parent="1" source="PIMqcbHy_xt0Nr5fmMW7-11" target="PIMqcbHy_xt0Nr5fmMW7-13">
          <mxGeometry relative="1" as="geometry" />
        </mxCell>
        <mxCell id="PIMqcbHy_xt0Nr5fmMW7-11" value="&lt;div&gt;Data Latih Teks Twit&lt;br&gt;&lt;/div&gt;" style="rounded=1;whiteSpace=wrap;html=1;" vertex="1" parent="1">
          <mxGeometry x="560" y="140" width="120" height="40" as="geometry" />
        </mxCell>
        <mxCell id="PIMqcbHy_xt0Nr5fmMW7-44" value="" style="edgeStyle=orthogonalEdgeStyle;rounded=0;orthogonalLoop=1;jettySize=auto;html=1;" edge="1" parent="1" source="PIMqcbHy_xt0Nr5fmMW7-12" target="PIMqcbHy_xt0Nr5fmMW7-40">
          <mxGeometry relative="1" as="geometry" />
        </mxCell>
        <mxCell id="PIMqcbHy_xt0Nr5fmMW7-12" value="&lt;div&gt;Train Model XG-Boost Deteksi Buzzer&lt;br&gt;&lt;/div&gt;" style="rounded=1;whiteSpace=wrap;html=1;" vertex="1" parent="1">
          <mxGeometry x="400" y="200" width="120" height="40" as="geometry" />
        </mxCell>
        <mxCell id="PIMqcbHy_xt0Nr5fmMW7-45" value="" style="edgeStyle=orthogonalEdgeStyle;rounded=0;orthogonalLoop=1;jettySize=auto;html=1;" edge="1" parent="1" source="PIMqcbHy_xt0Nr5fmMW7-13" target="PIMqcbHy_xt0Nr5fmMW7-40">
          <mxGeometry relative="1" as="geometry" />
        </mxCell>
        <mxCell id="PIMqcbHy_xt0Nr5fmMW7-13" value="&lt;div&gt;Train Model IndoTweet Deteksi Buzzer&lt;br&gt;&lt;/div&gt;" style="rounded=1;whiteSpace=wrap;html=1;" vertex="1" parent="1">
          <mxGeometry x="560" y="200" width="120" height="40" as="geometry" />
        </mxCell>
        <mxCell id="PIMqcbHy_xt0Nr5fmMW7-19" value="" style="endArrow=classic;html=1;rounded=0;exitX=0.5;exitY=1;exitDx=0;exitDy=0;entryX=0.5;entryY=0;entryDx=0;entryDy=0;" edge="1" parent="1" source="PIMqcbHy_xt0Nr5fmMW7-3" target="PIMqcbHy_xt0Nr5fmMW7-4">
          <mxGeometry width="50" height="50" relative="1" as="geometry">
            <mxPoint x="560" y="320" as="sourcePoint" />
            <mxPoint x="610" y="270" as="targetPoint" />
            <Array as="points">
              <mxPoint x="540" y="40" />
              <mxPoint x="380" y="40" />
            </Array>
          </mxGeometry>
        </mxCell>
        <mxCell id="PIMqcbHy_xt0Nr5fmMW7-20" value="" style="endArrow=classic;html=1;rounded=0;exitX=0.5;exitY=1;exitDx=0;exitDy=0;entryX=0.5;entryY=0;entryDx=0;entryDy=0;" edge="1" parent="1" source="PIMqcbHy_xt0Nr5fmMW7-3" target="PIMqcbHy_xt0Nr5fmMW7-8">
          <mxGeometry width="50" height="50" relative="1" as="geometry">
            <mxPoint x="550" y="30" as="sourcePoint" />
            <mxPoint x="390" y="70" as="targetPoint" />
            <Array as="points">
              <mxPoint x="540" y="40" />
              <mxPoint x="700" y="40" />
            </Array>
          </mxGeometry>
        </mxCell>
        <mxCell id="PIMqcbHy_xt0Nr5fmMW7-27" value="" style="endArrow=classic;html=1;rounded=0;exitX=0.5;exitY=1;exitDx=0;exitDy=0;entryX=0.5;entryY=0;entryDx=0;entryDy=0;" edge="1" parent="1" source="PIMqcbHy_xt0Nr5fmMW7-5" target="PIMqcbHy_xt0Nr5fmMW7-9">
          <mxGeometry width="50" height="50" relative="1" as="geometry">
            <mxPoint x="550" y="190" as="sourcePoint" />
            <mxPoint x="600" y="140" as="targetPoint" />
            <Array as="points">
              <mxPoint x="540" y="120" />
              <mxPoint x="460" y="120" />
            </Array>
          </mxGeometry>
        </mxCell>
        <mxCell id="PIMqcbHy_xt0Nr5fmMW7-37" value="" style="edgeStyle=orthogonalEdgeStyle;rounded=0;orthogonalLoop=1;jettySize=auto;html=1;" edge="1" parent="1" source="PIMqcbHy_xt0Nr5fmMW7-34" target="PIMqcbHy_xt0Nr5fmMW7-35">
          <mxGeometry relative="1" as="geometry" />
        </mxCell>
        <mxCell id="PIMqcbHy_xt0Nr5fmMW7-34" value="Data Twit X" style="rounded=1;whiteSpace=wrap;html=1;" vertex="1" parent="1">
          <mxGeometry x="180" y="-80" width="120" height="40" as="geometry" />
        </mxCell>
        <mxCell id="PIMqcbHy_xt0Nr5fmMW7-38" value="" style="edgeStyle=orthogonalEdgeStyle;rounded=0;orthogonalLoop=1;jettySize=auto;html=1;" edge="1" parent="1" source="PIMqcbHy_xt0Nr5fmMW7-35" target="PIMqcbHy_xt0Nr5fmMW7-36">
          <mxGeometry relative="1" as="geometry" />
        </mxCell>
        <mxCell id="PIMqcbHy_xt0Nr5fmMW7-35" value="&lt;div&gt;Preprocess 1&lt;br&gt;&lt;/div&gt;" style="rounded=1;whiteSpace=wrap;html=1;" vertex="1" parent="1">
          <mxGeometry x="330" y="-80" width="120" height="40" as="geometry" />
        </mxCell>
        <mxCell id="PIMqcbHy_xt0Nr5fmMW7-39" value="" style="edgeStyle=orthogonalEdgeStyle;rounded=0;orthogonalLoop=1;jettySize=auto;html=1;" edge="1" parent="1" source="PIMqcbHy_xt0Nr5fmMW7-36" target="PIMqcbHy_xt0Nr5fmMW7-3">
          <mxGeometry relative="1" as="geometry" />
        </mxCell>
        <mxCell id="PIMqcbHy_xt0Nr5fmMW7-36" value="Data Twit X Bersih 1" style="rounded=1;whiteSpace=wrap;html=1;" vertex="1" parent="1">
          <mxGeometry x="480" y="-80" width="120" height="40" as="geometry" />
        </mxCell>
        <mxCell id="PIMqcbHy_xt0Nr5fmMW7-46" value="" style="edgeStyle=orthogonalEdgeStyle;rounded=0;orthogonalLoop=1;jettySize=auto;html=1;" edge="1" parent="1" source="PIMqcbHy_xt0Nr5fmMW7-40" target="PIMqcbHy_xt0Nr5fmMW7-41">
          <mxGeometry relative="1" as="geometry" />
        </mxCell>
        <mxCell id="PIMqcbHy_xt0Nr5fmMW7-40" value="Hybrid Model Deteksi Buzzer" style="rounded=1;whiteSpace=wrap;html=1;" vertex="1" parent="1">
          <mxGeometry x="480" y="280" width="120" height="40" as="geometry" />
        </mxCell>
        <mxCell id="PIMqcbHy_xt0Nr5fmMW7-41" value="Deteksi Buzzer" style="rounded=1;whiteSpace=wrap;html=1;" vertex="1" parent="1">
          <mxGeometry x="480" y="340" width="120" height="40" as="geometry" />
        </mxCell>
        <mxCell id="PIMqcbHy_xt0Nr5fmMW7-48" value="" style="endArrow=classic;html=1;rounded=0;exitX=0.5;exitY=1;exitDx=0;exitDy=0;entryX=0.5;entryY=0;entryDx=0;entryDy=0;" edge="1" parent="1" source="PIMqcbHy_xt0Nr5fmMW7-41" target="PIMqcbHy_xt0Nr5fmMW7-49">
          <mxGeometry width="50" height="50" relative="1" as="geometry">
            <mxPoint x="670" y="470" as="sourcePoint" />
            <mxPoint x="540" y="420" as="targetPoint" />
            <Array as="points">
              <mxPoint x="540" y="400" />
              <mxPoint x="620" y="400" />
            </Array>
          </mxGeometry>
        </mxCell>
        <mxCell id="PIMqcbHy_xt0Nr5fmMW7-49" value="Data Buzzer" style="rounded=1;whiteSpace=wrap;html=1;" vertex="1" parent="1">
          <mxGeometry x="560" y="420" width="120" height="40" as="geometry" />
        </mxCell>
        <mxCell id="PIMqcbHy_xt0Nr5fmMW7-51" value="Data Non Buzzer" style="rounded=1;whiteSpace=wrap;html=1;" vertex="1" parent="1">
          <mxGeometry x="400" y="420" width="120" height="40" as="geometry" />
        </mxCell>
        <mxCell id="PIMqcbHy_xt0Nr5fmMW7-52" value="" style="endArrow=classic;html=1;rounded=0;exitX=0.5;exitY=1;exitDx=0;exitDy=0;entryX=0.5;entryY=0;entryDx=0;entryDy=0;" edge="1" parent="1" source="PIMqcbHy_xt0Nr5fmMW7-41" target="PIMqcbHy_xt0Nr5fmMW7-51">
          <mxGeometry width="50" height="50" relative="1" as="geometry">
            <mxPoint x="550" y="390" as="sourcePoint" />
            <mxPoint x="630" y="430" as="targetPoint" />
            <Array as="points">
              <mxPoint x="540" y="400" />
              <mxPoint x="460" y="400" />
            </Array>
          </mxGeometry>
        </mxCell>
        <mxCell id="1p1MyM87Zt0oCboP8Esl-12" value="" style="edgeStyle=orthogonalEdgeStyle;rounded=0;orthogonalLoop=1;jettySize=auto;html=1;" edge="1" parent="1" target="1p1MyM87Zt0oCboP8Esl-5">
          <mxGeometry relative="1" as="geometry">
            <mxPoint x="500" y="650" as="sourcePoint" />
          </mxGeometry>
        </mxCell>
        <mxCell id="RwIzIq9B2p8OVBIIAL1n-12" value="Data Twit X Bersih" style="rounded=1;whiteSpace=wrap;html=1;" vertex="1" parent="1">
          <mxGeometry x="440" y="610" width="120" height="40" as="geometry" />
        </mxCell>
        <mxCell id="RwIzIq9B2p8OVBIIAL1n-16" value="DETEKSI BUZZER" style="rounded=0;whiteSpace=wrap;html=1;" vertex="1" parent="1">
          <mxGeometry y="-80" width="90" height="560" as="geometry" />
        </mxCell>
        <mxCell id="RwIzIq9B2p8OVBIIAL1n-17" value="KLASIFIKASI SENTIMENT" style="rounded=0;whiteSpace=wrap;html=1;" vertex="1" parent="1">
          <mxGeometry y="480" width="90" height="640" as="geometry" />
        </mxCell>
        <mxCell id="RwIzIq9B2p8OVBIIAL1n-18" value="TOPIC MODELING" style="rounded=0;whiteSpace=wrap;html=1;" vertex="1" parent="1">
          <mxGeometry y="1120" width="90" height="380" as="geometry" />
        </mxCell>
        <mxCell id="1p1MyM87Zt0oCboP8Esl-19" value="" style="edgeStyle=orthogonalEdgeStyle;rounded=0;orthogonalLoop=1;jettySize=auto;html=1;" edge="1" parent="1" source="1p1MyM87Zt0oCboP8Esl-1" target="1p1MyM87Zt0oCboP8Esl-3">
          <mxGeometry relative="1" as="geometry" />
        </mxCell>
        <mxCell id="1p1MyM87Zt0oCboP8Esl-1" value="Sample dan Pelabelan Data Latih" style="rounded=1;whiteSpace=wrap;html=1;" vertex="1" parent="1">
          <mxGeometry x="760" y="770" width="120" height="40" as="geometry" />
        </mxCell>
        <mxCell id="1p1MyM87Zt0oCboP8Esl-20" value="" style="edgeStyle=orthogonalEdgeStyle;rounded=0;orthogonalLoop=1;jettySize=auto;html=1;" edge="1" parent="1" source="1p1MyM87Zt0oCboP8Esl-3" target="1p1MyM87Zt0oCboP8Esl-4">
          <mxGeometry relative="1" as="geometry" />
        </mxCell>
        <mxCell id="1p1MyM87Zt0oCboP8Esl-3" value="Data Latih Sentiment" style="rounded=1;whiteSpace=wrap;html=1;" vertex="1" parent="1">
          <mxGeometry x="760" y="830" width="120" height="40" as="geometry" />
        </mxCell>
        <mxCell id="1p1MyM87Zt0oCboP8Esl-27" value="" style="edgeStyle=orthogonalEdgeStyle;rounded=0;orthogonalLoop=1;jettySize=auto;html=1;" edge="1" parent="1" source="1p1MyM87Zt0oCboP8Esl-4" target="1p1MyM87Zt0oCboP8Esl-25">
          <mxGeometry relative="1" as="geometry" />
        </mxCell>
        <mxCell id="1p1MyM87Zt0oCboP8Esl-4" value="&lt;div&gt;Train Model IndoTweet Sentiment&lt;br&gt;&lt;/div&gt;" style="rounded=1;whiteSpace=wrap;html=1;" vertex="1" parent="1">
          <mxGeometry x="760" y="890" width="120" height="40" as="geometry" />
        </mxCell>
        <mxCell id="1p1MyM87Zt0oCboP8Esl-13" value="" style="edgeStyle=orthogonalEdgeStyle;rounded=0;orthogonalLoop=1;jettySize=auto;html=1;" edge="1" parent="1" source="1p1MyM87Zt0oCboP8Esl-5" target="1p1MyM87Zt0oCboP8Esl-7">
          <mxGeometry relative="1" as="geometry" />
        </mxCell>
        <mxCell id="1p1MyM87Zt0oCboP8Esl-5" value="Filter keyterm paslon" style="rounded=1;whiteSpace=wrap;html=1;" vertex="1" parent="1">
          <mxGeometry x="440" y="690" width="120" height="40" as="geometry" />
        </mxCell>
        <mxCell id="1p1MyM87Zt0oCboP8Esl-6" value="Grup Data Non Buzzer Paslon 1,2,3" style="rounded=1;whiteSpace=wrap;html=1;" vertex="1" parent="1">
          <mxGeometry x="280" y="770" width="120" height="40" as="geometry" />
        </mxCell>
        <mxCell id="1p1MyM87Zt0oCboP8Esl-22" value="" style="edgeStyle=orthogonalEdgeStyle;rounded=0;orthogonalLoop=1;jettySize=auto;html=1;" edge="1" parent="1" source="1p1MyM87Zt0oCboP8Esl-7" target="1p1MyM87Zt0oCboP8Esl-9">
          <mxGeometry relative="1" as="geometry" />
        </mxCell>
        <mxCell id="1p1MyM87Zt0oCboP8Esl-7" value="Grup Data Buzzer Paslon 1,2,3" style="rounded=1;whiteSpace=wrap;html=1;" vertex="1" parent="1">
          <mxGeometry x="440" y="770" width="120" height="40" as="geometry" />
        </mxCell>
        <mxCell id="1p1MyM87Zt0oCboP8Esl-16" value="" style="edgeStyle=orthogonalEdgeStyle;rounded=0;orthogonalLoop=1;jettySize=auto;html=1;" edge="1" parent="1" source="1p1MyM87Zt0oCboP8Esl-8" target="1p1MyM87Zt0oCboP8Esl-1">
          <mxGeometry relative="1" as="geometry" />
        </mxCell>
        <mxCell id="1p1MyM87Zt0oCboP8Esl-8" value="&lt;div&gt;Grup Data Twit Paslon 1,2,3&lt;/div&gt;" style="rounded=1;whiteSpace=wrap;html=1;" vertex="1" parent="1">
          <mxGeometry x="600" y="770" width="120" height="40" as="geometry" />
        </mxCell>
        <mxCell id="1p1MyM87Zt0oCboP8Esl-9" value="Klasifikasi Sentiment" style="rounded=1;whiteSpace=wrap;html=1;" vertex="1" parent="1">
          <mxGeometry x="440" y="890" width="120" height="40" as="geometry" />
        </mxCell>
        <mxCell id="1p1MyM87Zt0oCboP8Esl-14" value="" style="endArrow=classic;html=1;rounded=0;exitX=0.5;exitY=1;exitDx=0;exitDy=0;entryX=0.5;entryY=0;entryDx=0;entryDy=0;" edge="1" parent="1">
          <mxGeometry width="50" height="50" relative="1" as="geometry">
            <mxPoint x="500" y="730" as="sourcePoint" />
            <mxPoint x="340" y="770" as="targetPoint" />
            <Array as="points">
              <mxPoint x="500" y="750" />
              <mxPoint x="340" y="750" />
            </Array>
          </mxGeometry>
        </mxCell>
        <mxCell id="1p1MyM87Zt0oCboP8Esl-15" value="" style="endArrow=classic;html=1;rounded=0;exitX=0.5;exitY=1;exitDx=0;exitDy=0;entryX=0.5;entryY=0;entryDx=0;entryDy=0;" edge="1" parent="1">
          <mxGeometry width="50" height="50" relative="1" as="geometry">
            <mxPoint x="500" y="730" as="sourcePoint" />
            <mxPoint x="660" y="770" as="targetPoint" />
            <Array as="points">
              <mxPoint x="500" y="750" />
              <mxPoint x="660" y="750" />
            </Array>
          </mxGeometry>
        </mxCell>
        <mxCell id="1p1MyM87Zt0oCboP8Esl-23" value="" style="endArrow=classic;html=1;rounded=0;exitX=0.5;exitY=1;exitDx=0;exitDy=0;entryX=0.5;entryY=0;entryDx=0;entryDy=0;" edge="1" parent="1" source="1p1MyM87Zt0oCboP8Esl-6" target="1p1MyM87Zt0oCboP8Esl-9">
          <mxGeometry width="50" height="50" relative="1" as="geometry">
            <mxPoint x="500" y="810" as="sourcePoint" />
            <mxPoint x="550" y="760" as="targetPoint" />
            <Array as="points">
              <mxPoint x="340" y="830" />
              <mxPoint x="500" y="830" />
            </Array>
          </mxGeometry>
        </mxCell>
        <mxCell id="1p1MyM87Zt0oCboP8Esl-24" value="" style="endArrow=classic;html=1;rounded=0;exitX=0.5;exitY=1;exitDx=0;exitDy=0;entryX=0.5;entryY=0;entryDx=0;entryDy=0;" edge="1" parent="1" source="1p1MyM87Zt0oCboP8Esl-8" target="1p1MyM87Zt0oCboP8Esl-9">
          <mxGeometry width="50" height="50" relative="1" as="geometry">
            <mxPoint x="350" y="820" as="sourcePoint" />
            <mxPoint x="510" y="860" as="targetPoint" />
            <Array as="points">
              <mxPoint x="660" y="830" />
              <mxPoint x="500" y="830" />
            </Array>
          </mxGeometry>
        </mxCell>
        <mxCell id="1p1MyM87Zt0oCboP8Esl-39" value="" style="edgeStyle=orthogonalEdgeStyle;rounded=0;orthogonalLoop=1;jettySize=auto;html=1;" edge="1" parent="1" source="1p1MyM87Zt0oCboP8Esl-25" target="1p1MyM87Zt0oCboP8Esl-9">
          <mxGeometry relative="1" as="geometry" />
        </mxCell>
        <mxCell id="1p1MyM87Zt0oCboP8Esl-25" value="&lt;div&gt;Model IndoTweet Sentiment&lt;br&gt;&lt;/div&gt;" style="rounded=1;whiteSpace=wrap;html=1;" vertex="1" parent="1">
          <mxGeometry x="600" y="890" width="120" height="40" as="geometry" />
        </mxCell>
        <mxCell id="1p1MyM87Zt0oCboP8Esl-43" value="" style="edgeStyle=orthogonalEdgeStyle;rounded=0;orthogonalLoop=1;jettySize=auto;html=1;" edge="1" parent="1" source="1p1MyM87Zt0oCboP8Esl-29" target="1p1MyM87Zt0oCboP8Esl-30">
          <mxGeometry relative="1" as="geometry" />
        </mxCell>
        <mxCell id="1p1MyM87Zt0oCboP8Esl-29" value="Preprocess tahap 3" style="rounded=1;whiteSpace=wrap;html=1;" vertex="1" parent="1">
          <mxGeometry x="800" y="1070" width="120" height="40" as="geometry" />
        </mxCell>
        <mxCell id="1p1MyM87Zt0oCboP8Esl-52" value="" style="edgeStyle=orthogonalEdgeStyle;rounded=0;orthogonalLoop=1;jettySize=auto;html=1;" edge="1" parent="1" source="1p1MyM87Zt0oCboP8Esl-30" target="1p1MyM87Zt0oCboP8Esl-34">
          <mxGeometry relative="1" as="geometry" />
        </mxCell>
        <mxCell id="1p1MyM87Zt0oCboP8Esl-30" value="Data Twit X Bersih tahap 3" style="rounded=1;whiteSpace=wrap;html=1;" vertex="1" parent="1">
          <mxGeometry x="800" y="1130" width="120" height="40" as="geometry" />
        </mxCell>
        <mxCell id="1p1MyM87Zt0oCboP8Esl-53" value="" style="edgeStyle=orthogonalEdgeStyle;rounded=0;orthogonalLoop=1;jettySize=auto;html=1;" edge="1" parent="1" source="1p1MyM87Zt0oCboP8Esl-34" target="1p1MyM87Zt0oCboP8Esl-49">
          <mxGeometry relative="1" as="geometry" />
        </mxCell>
        <mxCell id="1p1MyM87Zt0oCboP8Esl-34" value="Topic Modeling dengan LDA" style="rounded=1;whiteSpace=wrap;html=1;" vertex="1" parent="1">
          <mxGeometry x="800" y="1190" width="120" height="40" as="geometry" />
        </mxCell>
        <mxCell id="1p1MyM87Zt0oCboP8Esl-35" value="Pemasangan Sentiment dan Topik" style="rounded=1;whiteSpace=wrap;html=1;" vertex="1" parent="1">
          <mxGeometry x="440" y="1190" width="120" height="40" as="geometry" />
        </mxCell>
        <mxCell id="1p1MyM87Zt0oCboP8Esl-36" value="Grup Data Non Buzzer Paslon 1,2,3 dengan klasifikasi sentiment" style="rounded=1;whiteSpace=wrap;html=1;" vertex="1" parent="1">
          <mxGeometry x="280" y="970" width="120" height="60" as="geometry" />
        </mxCell>
        <mxCell id="1p1MyM87Zt0oCboP8Esl-46" value="" style="edgeStyle=orthogonalEdgeStyle;rounded=0;orthogonalLoop=1;jettySize=auto;html=1;" edge="1" parent="1" source="1p1MyM87Zt0oCboP8Esl-37" target="1p1MyM87Zt0oCboP8Esl-35">
          <mxGeometry relative="1" as="geometry" />
        </mxCell>
        <mxCell id="1p1MyM87Zt0oCboP8Esl-37" value="Grup Data Buzzer Paslon 1,2,3 dengan klasifikasi sentiment" style="rounded=1;whiteSpace=wrap;html=1;" vertex="1" parent="1">
          <mxGeometry x="440" y="970" width="120" height="60" as="geometry" />
        </mxCell>
        <mxCell id="1p1MyM87Zt0oCboP8Esl-38" value="&lt;div&gt;Grup Data Twit Paslon 1,2,3&lt;/div&gt;&amp;nbsp;dengan klasifikasi sentiment" style="rounded=1;whiteSpace=wrap;html=1;" vertex="1" parent="1">
          <mxGeometry x="600" y="970" width="120" height="60" as="geometry" />
        </mxCell>
        <mxCell id="1p1MyM87Zt0oCboP8Esl-40" value="" style="endArrow=classic;html=1;rounded=0;exitX=0.5;exitY=1;exitDx=0;exitDy=0;entryX=0.5;entryY=0;entryDx=0;entryDy=0;" edge="1" parent="1">
          <mxGeometry width="50" height="50" relative="1" as="geometry">
            <mxPoint x="500" y="930" as="sourcePoint" />
            <mxPoint x="340" y="970" as="targetPoint" />
            <Array as="points">
              <mxPoint x="500" y="950" />
              <mxPoint x="340" y="950" />
            </Array>
          </mxGeometry>
        </mxCell>
        <mxCell id="1p1MyM87Zt0oCboP8Esl-41" value="" style="endArrow=classic;html=1;rounded=0;exitX=0.5;exitY=1;exitDx=0;exitDy=0;entryX=0.5;entryY=0;entryDx=0;entryDy=0;" edge="1" parent="1">
          <mxGeometry width="50" height="50" relative="1" as="geometry">
            <mxPoint x="500" y="930" as="sourcePoint" />
            <mxPoint x="660" y="970" as="targetPoint" />
            <Array as="points">
              <mxPoint x="500" y="950" />
              <mxPoint x="660" y="950" />
            </Array>
          </mxGeometry>
        </mxCell>
        <mxCell id="1p1MyM87Zt0oCboP8Esl-42" value="" style="edgeStyle=orthogonalEdgeStyle;rounded=0;orthogonalLoop=1;jettySize=auto;html=1;" edge="1" parent="1">
          <mxGeometry relative="1" as="geometry">
            <mxPoint x="500" y="930" as="sourcePoint" />
            <mxPoint x="500" y="970" as="targetPoint" />
          </mxGeometry>
        </mxCell>
        <mxCell id="1p1MyM87Zt0oCboP8Esl-47" value="" style="endArrow=classic;html=1;rounded=0;exitX=0.5;exitY=1;exitDx=0;exitDy=0;entryX=0.5;entryY=0;entryDx=0;entryDy=0;" edge="1" parent="1" source="1p1MyM87Zt0oCboP8Esl-36" target="1p1MyM87Zt0oCboP8Esl-35">
          <mxGeometry width="50" height="50" relative="1" as="geometry">
            <mxPoint x="630" y="1050" as="sourcePoint" />
            <mxPoint x="680" y="1000" as="targetPoint" />
            <Array as="points">
              <mxPoint x="340" y="1050" />
              <mxPoint x="500" y="1050" />
            </Array>
          </mxGeometry>
        </mxCell>
        <mxCell id="1p1MyM87Zt0oCboP8Esl-48" value="" style="endArrow=classic;html=1;rounded=0;exitX=0.5;exitY=1;exitDx=0;exitDy=0;entryX=0.5;entryY=0;entryDx=0;entryDy=0;" edge="1" parent="1" source="1p1MyM87Zt0oCboP8Esl-38" target="1p1MyM87Zt0oCboP8Esl-35">
          <mxGeometry width="50" height="50" relative="1" as="geometry">
            <mxPoint x="350" y="1040" as="sourcePoint" />
            <mxPoint x="510" y="1120" as="targetPoint" />
            <Array as="points">
              <mxPoint x="660" y="1050" />
              <mxPoint x="500" y="1050" />
            </Array>
          </mxGeometry>
        </mxCell>
        <mxCell id="1p1MyM87Zt0oCboP8Esl-54" value="" style="edgeStyle=orthogonalEdgeStyle;rounded=0;orthogonalLoop=1;jettySize=auto;html=1;" edge="1" parent="1" source="1p1MyM87Zt0oCboP8Esl-49" target="1p1MyM87Zt0oCboP8Esl-35">
          <mxGeometry relative="1" as="geometry" />
        </mxCell>
        <mxCell id="1p1MyM87Zt0oCboP8Esl-49" value="Hasil Topik untuk setiap data twit" style="rounded=1;whiteSpace=wrap;html=1;" vertex="1" parent="1">
          <mxGeometry x="620" y="1190" width="120" height="40" as="geometry" />
        </mxCell>
        <mxCell id="1p1MyM87Zt0oCboP8Esl-55" value="Grup Data Non Buzzer Paslon 1,2,3 dengan klasifikasi sentiment dan topik" style="rounded=1;whiteSpace=wrap;html=1;" vertex="1" parent="1">
          <mxGeometry x="280" y="1270" width="120" height="60" as="geometry" />
        </mxCell>
        <mxCell id="1p1MyM87Zt0oCboP8Esl-56" value="Grup Data Buzzer Paslon 1,2,3 dengan klasifikasi sentiment dan topik" style="rounded=1;whiteSpace=wrap;html=1;" vertex="1" parent="1">
          <mxGeometry x="440" y="1270" width="120" height="60" as="geometry" />
        </mxCell>
        <mxCell id="1p1MyM87Zt0oCboP8Esl-57" value="&lt;div&gt;Grup Data Twit Paslon 1,2,3&lt;/div&gt;&amp;nbsp;dengan klasifikasi sentiment dan topik" style="rounded=1;whiteSpace=wrap;html=1;" vertex="1" parent="1">
          <mxGeometry x="600" y="1270" width="120" height="60" as="geometry" />
        </mxCell>
        <mxCell id="1p1MyM87Zt0oCboP8Esl-58" value="" style="endArrow=classic;html=1;rounded=0;exitX=0.5;exitY=1;exitDx=0;exitDy=0;entryX=0.5;entryY=0;entryDx=0;entryDy=0;" edge="1" parent="1">
          <mxGeometry width="50" height="50" relative="1" as="geometry">
            <mxPoint x="500" y="1230" as="sourcePoint" />
            <mxPoint x="340" y="1270" as="targetPoint" />
            <Array as="points">
              <mxPoint x="500" y="1250" />
              <mxPoint x="340" y="1250" />
            </Array>
          </mxGeometry>
        </mxCell>
        <mxCell id="1p1MyM87Zt0oCboP8Esl-59" value="" style="endArrow=classic;html=1;rounded=0;exitX=0.5;exitY=1;exitDx=0;exitDy=0;entryX=0.5;entryY=0;entryDx=0;entryDy=0;" edge="1" parent="1">
          <mxGeometry width="50" height="50" relative="1" as="geometry">
            <mxPoint x="500" y="1230" as="sourcePoint" />
            <mxPoint x="660" y="1270" as="targetPoint" />
            <Array as="points">
              <mxPoint x="500" y="1250" />
              <mxPoint x="660" y="1250" />
            </Array>
          </mxGeometry>
        </mxCell>
        <mxCell id="1p1MyM87Zt0oCboP8Esl-60" value="" style="edgeStyle=orthogonalEdgeStyle;rounded=0;orthogonalLoop=1;jettySize=auto;html=1;" edge="1" parent="1">
          <mxGeometry relative="1" as="geometry">
            <mxPoint x="500" y="1230" as="sourcePoint" />
            <mxPoint x="500" y="1270" as="targetPoint" />
          </mxGeometry>
        </mxCell>
        <mxCell id="1p1MyM87Zt0oCboP8Esl-61" value="Analisis dan Kesimpulan" style="rounded=1;whiteSpace=wrap;html=1;" vertex="1" parent="1">
          <mxGeometry x="440" y="1370" width="120" height="40" as="geometry" />
        </mxCell>
        <mxCell id="1p1MyM87Zt0oCboP8Esl-65" value="" style="endArrow=classic;html=1;rounded=0;exitX=0.5;exitY=1;exitDx=0;exitDy=0;entryX=0.5;entryY=0;entryDx=0;entryDy=0;" edge="1" parent="1">
          <mxGeometry width="50" height="50" relative="1" as="geometry">
            <mxPoint x="340" y="1330" as="sourcePoint" />
            <mxPoint x="500" y="1370" as="targetPoint" />
            <Array as="points">
              <mxPoint x="340" y="1350" />
              <mxPoint x="500" y="1350" />
            </Array>
          </mxGeometry>
        </mxCell>
        <mxCell id="1p1MyM87Zt0oCboP8Esl-66" value="" style="edgeStyle=orthogonalEdgeStyle;rounded=0;orthogonalLoop=1;jettySize=auto;html=1;" edge="1" parent="1">
          <mxGeometry relative="1" as="geometry">
            <mxPoint x="500" y="1330" as="sourcePoint" />
            <mxPoint x="500" y="1370" as="targetPoint" />
          </mxGeometry>
        </mxCell>
        <mxCell id="1p1MyM87Zt0oCboP8Esl-67" value="" style="endArrow=classic;html=1;rounded=0;exitX=0.5;exitY=1;exitDx=0;exitDy=0;entryX=0.5;entryY=0;entryDx=0;entryDy=0;" edge="1" parent="1">
          <mxGeometry width="50" height="50" relative="1" as="geometry">
            <mxPoint x="660" y="1330" as="sourcePoint" />
            <mxPoint x="500" y="1370" as="targetPoint" />
            <Array as="points">
              <mxPoint x="660" y="1350" />
              <mxPoint x="500" y="1350" />
            </Array>
          </mxGeometry>
        </mxCell>
        <mxCell id="FsspF8Xs15yCbv-X96As-6" value="" style="edgeStyle=orthogonalEdgeStyle;rounded=0;orthogonalLoop=1;jettySize=auto;html=1;" edge="1" parent="1" source="FsspF8Xs15yCbv-X96As-7" target="FsspF8Xs15yCbv-X96As-9">
          <mxGeometry relative="1" as="geometry" />
        </mxCell>
        <mxCell id="FsspF8Xs15yCbv-X96As-7" value="Data Twit X Bersih 1" style="rounded=1;whiteSpace=wrap;html=1;" vertex="1" parent="1">
          <mxGeometry x="140" y="610" width="120" height="40" as="geometry" />
        </mxCell>
        <mxCell id="FsspF8Xs15yCbv-X96As-8" value="" style="edgeStyle=orthogonalEdgeStyle;rounded=0;orthogonalLoop=1;jettySize=auto;html=1;" edge="1" parent="1" source="FsspF8Xs15yCbv-X96As-9">
          <mxGeometry relative="1" as="geometry">
            <mxPoint x="440" y="630" as="targetPoint" />
          </mxGeometry>
        </mxCell>
        <mxCell id="FsspF8Xs15yCbv-X96As-9" value="&lt;div&gt;Preprocess&lt;br&gt;&lt;/div&gt;" style="rounded=1;whiteSpace=wrap;html=1;" vertex="1" parent="1">
          <mxGeometry x="290" y="610" width="120" height="40" as="geometry" />
        </mxCell>
        <mxCell id="BHhyjXsii5wQs29tYsD8-1" value="" style="edgeStyle=orthogonalEdgeStyle;rounded=0;orthogonalLoop=1;jettySize=auto;html=1;" edge="1" parent="1" source="FsspF8Xs15yCbv-X96As-13" target="FsspF8Xs15yCbv-X96As-14">
          <mxGeometry relative="1" as="geometry" />
        </mxCell>
        <mxCell id="FsspF8Xs15yCbv-X96As-13" value="&lt;div&gt;Data Twit&lt;/div&gt;&lt;div&gt;Bersih 1&lt;br&gt;&lt;/div&gt;" style="shape=parallelogram;html=1;strokeWidth=2;perimeter=parallelogramPerimeter;whiteSpace=wrap;rounded=1;arcSize=12;size=0.23;" vertex="1" parent="1">
          <mxGeometry x="840" y="40" width="90" height="40" as="geometry" />
        </mxCell>
        <mxCell id="FsspF8Xs15yCbv-X96As-24" value="" style="edgeStyle=orthogonalEdgeStyle;rounded=0;orthogonalLoop=1;jettySize=auto;html=1;" edge="1" parent="1" source="Rwy1jw5e0Je4j8jJhAhE-1">
          <mxGeometry relative="1" as="geometry">
            <mxPoint x="1140" y="120" as="targetPoint" />
          </mxGeometry>
        </mxCell>
        <mxCell id="BHhyjXsii5wQs29tYsD8-2" value="" style="edgeStyle=orthogonalEdgeStyle;rounded=0;orthogonalLoop=1;jettySize=auto;html=1;" edge="1" parent="1" source="FsspF8Xs15yCbv-X96As-14" target="Rwy1jw5e0Je4j8jJhAhE-1">
          <mxGeometry relative="1" as="geometry" />
        </mxCell>
        <mxCell id="FsspF8Xs15yCbv-X96As-14" value="Sampling dan Pelabelan Data Latih" style="rounded=1;whiteSpace=wrap;html=1;absoluteArcSize=1;arcSize=14;strokeWidth=2;" vertex="1" parent="1">
          <mxGeometry x="950" y="40" width="120" height="40" as="geometry" />
        </mxCell>
        <mxCell id="FsspF8Xs15yCbv-X96As-39" style="edgeStyle=orthogonalEdgeStyle;rounded=0;orthogonalLoop=1;jettySize=auto;html=1;exitX=0.5;exitY=1;exitDx=0;exitDy=0;entryX=0.5;entryY=0;entryDx=0;entryDy=0;" edge="1" parent="1" source="FsspF8Xs15yCbv-X96As-34" target="FsspF8Xs15yCbv-X96As-38">
          <mxGeometry relative="1" as="geometry" />
        </mxCell>
        <mxCell id="FsspF8Xs15yCbv-X96As-34" value="&lt;div&gt;Train Model&lt;/div&gt;&lt;div&gt;XG-Boost&lt;br&gt;&lt;/div&gt;" style="rounded=1;whiteSpace=wrap;html=1;absoluteArcSize=1;arcSize=14;strokeWidth=2;" vertex="1" parent="1">
          <mxGeometry x="1010" y="200" width="100" height="40" as="geometry" />
        </mxCell>
        <mxCell id="FsspF8Xs15yCbv-X96As-42" style="edgeStyle=orthogonalEdgeStyle;rounded=0;orthogonalLoop=1;jettySize=auto;html=1;exitX=0.5;exitY=1;exitDx=0;exitDy=0;" edge="1" parent="1" source="FsspF8Xs15yCbv-X96As-35" target="FsspF8Xs15yCbv-X96As-38">
          <mxGeometry relative="1" as="geometry" />
        </mxCell>
        <mxCell id="FsspF8Xs15yCbv-X96As-35" value="&lt;div&gt;Train Model IndoBERTweet&lt;/div&gt;" style="rounded=1;whiteSpace=wrap;html=1;absoluteArcSize=1;arcSize=14;strokeWidth=2;" vertex="1" parent="1">
          <mxGeometry x="1170" y="200" width="100" height="40" as="geometry" />
        </mxCell>
        <mxCell id="FsspF8Xs15yCbv-X96As-44" style="edgeStyle=orthogonalEdgeStyle;rounded=0;orthogonalLoop=1;jettySize=auto;html=1;exitX=1;exitY=0.5;exitDx=0;exitDy=0;entryX=0;entryY=0.5;entryDx=0;entryDy=0;" edge="1" parent="1" source="FsspF8Xs15yCbv-X96As-38" target="FsspF8Xs15yCbv-X96As-43">
          <mxGeometry relative="1" as="geometry" />
        </mxCell>
        <mxCell id="FsspF8Xs15yCbv-X96As-38" value="&lt;div&gt;Hybrid Model&lt;/div&gt;&lt;div&gt;Deteksi Buzzer&lt;/div&gt;" style="shape=parallelogram;html=1;strokeWidth=2;perimeter=parallelogramPerimeter;whiteSpace=wrap;rounded=1;arcSize=12;size=0.23;" vertex="1" parent="1">
          <mxGeometry x="1080" y="280" width="120" height="40" as="geometry" />
        </mxCell>
        <mxCell id="FsspF8Xs15yCbv-X96As-46" style="edgeStyle=orthogonalEdgeStyle;rounded=0;orthogonalLoop=1;jettySize=auto;html=1;exitX=1;exitY=0.5;exitDx=0;exitDy=0;entryX=0;entryY=0.5;entryDx=0;entryDy=0;" edge="1" parent="1" source="FsspF8Xs15yCbv-X96As-43" target="FsspF8Xs15yCbv-X96As-45">
          <mxGeometry relative="1" as="geometry" />
        </mxCell>
        <mxCell id="FsspF8Xs15yCbv-X96As-43" value="&lt;div&gt;Deteksi Buzzer&lt;br&gt;&lt;/div&gt;" style="rounded=1;whiteSpace=wrap;html=1;absoluteArcSize=1;arcSize=14;strokeWidth=2;" vertex="1" parent="1">
          <mxGeometry x="1220" y="280" width="100" height="40" as="geometry" />
        </mxCell>
        <mxCell id="FsspF8Xs15yCbv-X96As-45" value="Hasil Deteksi" style="shape=parallelogram;html=1;strokeWidth=2;perimeter=parallelogramPerimeter;whiteSpace=wrap;rounded=1;arcSize=12;size=0.23;" vertex="1" parent="1">
          <mxGeometry x="1340" y="280" width="120" height="40" as="geometry" />
        </mxCell>
        <mxCell id="BHhyjXsii5wQs29tYsD8-3" value="" style="edgeStyle=orthogonalEdgeStyle;rounded=0;orthogonalLoop=1;jettySize=auto;html=1;" edge="1" parent="1" source="FsspF8Xs15yCbv-X96As-49" target="FsspF8Xs15yCbv-X96As-52">
          <mxGeometry relative="1" as="geometry" />
        </mxCell>
        <mxCell id="FsspF8Xs15yCbv-X96As-49" value="&lt;div&gt;Data Twit&lt;/div&gt;&lt;div&gt;Bersih 1&lt;br&gt;&lt;/div&gt;" style="shape=parallelogram;html=1;strokeWidth=2;perimeter=parallelogramPerimeter;whiteSpace=wrap;rounded=1;arcSize=12;size=0.23;" vertex="1" parent="1">
          <mxGeometry x="1250" y="600" width="80" height="40" as="geometry" />
        </mxCell>
        <mxCell id="FsspF8Xs15yCbv-X96As-50" value="" style="edgeStyle=orthogonalEdgeStyle;rounded=0;orthogonalLoop=1;jettySize=auto;html=1;" edge="1" parent="1" source="FsspF8Xs15yCbv-X96As-52">
          <mxGeometry relative="1" as="geometry">
            <mxPoint x="1410" y="680" as="targetPoint" />
          </mxGeometry>
        </mxCell>
        <mxCell id="FsspF8Xs15yCbv-X96As-51" style="edgeStyle=orthogonalEdgeStyle;rounded=0;orthogonalLoop=1;jettySize=auto;html=1;exitX=0.5;exitY=1;exitDx=0;exitDy=0;entryX=0.5;entryY=0;entryDx=0;entryDy=0;" edge="1" parent="1" source="FsspF8Xs15yCbv-X96As-52">
          <mxGeometry relative="1" as="geometry">
            <mxPoint x="1530" y="680" as="targetPoint" />
          </mxGeometry>
        </mxCell>
        <mxCell id="FsspF8Xs15yCbv-X96As-52" value="Filter Keyterm Paslon" style="rounded=1;whiteSpace=wrap;html=1;absoluteArcSize=1;arcSize=14;strokeWidth=2;" vertex="1" parent="1">
          <mxGeometry x="1350" y="600" width="120" height="40" as="geometry" />
        </mxCell>
        <mxCell id="FsspF8Xs15yCbv-X96As-62" value="" style="edgeStyle=orthogonalEdgeStyle;rounded=0;orthogonalLoop=1;jettySize=auto;html=1;entryX=0.5;entryY=0;entryDx=0;entryDy=0;exitX=0.5;exitY=1;exitDx=0;exitDy=0;" edge="1" parent="1" source="FsspF8Xs15yCbv-X96As-52">
          <mxGeometry relative="1" as="geometry">
            <mxPoint x="1420" y="650" as="sourcePoint" />
            <mxPoint x="1290" y="680" as="targetPoint" />
          </mxGeometry>
        </mxCell>
        <mxCell id="FsspF8Xs15yCbv-X96As-88" value="" style="edgeStyle=orthogonalEdgeStyle;rounded=0;orthogonalLoop=1;jettySize=auto;html=1;" edge="1" parent="1" source="FsspF8Xs15yCbv-X96As-66" target="FsspF8Xs15yCbv-X96As-81">
          <mxGeometry relative="1" as="geometry" />
        </mxCell>
        <mxCell id="FsspF8Xs15yCbv-X96As-66" value="&lt;div&gt;Kelompok&amp;nbsp;&lt;/div&gt;&lt;div&gt;Data Paslon 2&lt;br&gt;&lt;/div&gt;" style="shape=parallelogram;html=1;strokeWidth=2;perimeter=parallelogramPerimeter;whiteSpace=wrap;rounded=1;arcSize=12;size=0.23;" vertex="1" parent="1">
          <mxGeometry x="1350" y="680" width="120" height="40" as="geometry" />
        </mxCell>
        <mxCell id="FsspF8Xs15yCbv-X96As-85" style="edgeStyle=orthogonalEdgeStyle;rounded=0;orthogonalLoop=1;jettySize=auto;html=1;exitX=0.5;exitY=1;exitDx=0;exitDy=0;entryX=0.5;entryY=0;entryDx=0;entryDy=0;" edge="1" parent="1" source="FsspF8Xs15yCbv-X96As-76" target="FsspF8Xs15yCbv-X96As-81">
          <mxGeometry relative="1" as="geometry" />
        </mxCell>
        <mxCell id="FsspF8Xs15yCbv-X96As-76" value="&lt;div&gt;Kelompok&amp;nbsp;&lt;/div&gt;&lt;div&gt;Data Paslon 1&lt;/div&gt;" style="shape=parallelogram;html=1;strokeWidth=2;perimeter=parallelogramPerimeter;whiteSpace=wrap;rounded=1;arcSize=12;size=0.23;" vertex="1" parent="1">
          <mxGeometry x="1230" y="680" width="120" height="40" as="geometry" />
        </mxCell>
        <mxCell id="FsspF8Xs15yCbv-X96As-89" style="edgeStyle=orthogonalEdgeStyle;rounded=0;orthogonalLoop=1;jettySize=auto;html=1;exitX=0.5;exitY=1;exitDx=0;exitDy=0;entryX=0.5;entryY=0;entryDx=0;entryDy=0;" edge="1" parent="1" source="FsspF8Xs15yCbv-X96As-77" target="FsspF8Xs15yCbv-X96As-81">
          <mxGeometry relative="1" as="geometry" />
        </mxCell>
        <mxCell id="FsspF8Xs15yCbv-X96As-77" value="&lt;div&gt;Kelompok&amp;nbsp;&lt;/div&gt;&lt;div&gt;Data Paslon 3&lt;br&gt;&lt;/div&gt;" style="shape=parallelogram;html=1;strokeWidth=2;perimeter=parallelogramPerimeter;whiteSpace=wrap;rounded=1;arcSize=12;size=0.23;" vertex="1" parent="1">
          <mxGeometry x="1470" y="680" width="120" height="40" as="geometry" />
        </mxCell>
        <mxCell id="FsspF8Xs15yCbv-X96As-80" style="edgeStyle=orthogonalEdgeStyle;rounded=0;orthogonalLoop=1;jettySize=auto;html=1;exitX=0.5;exitY=1;exitDx=0;exitDy=0;entryX=0.5;entryY=0;entryDx=0;entryDy=0;" edge="1" parent="1" source="FsspF8Xs15yCbv-X96As-78" target="FsspF8Xs15yCbv-X96As-79">
          <mxGeometry relative="1" as="geometry" />
        </mxCell>
        <mxCell id="FsspF8Xs15yCbv-X96As-78" value="&lt;div&gt;Anotasi Sentimen Hashtags&lt;/div&gt;" style="rounded=1;whiteSpace=wrap;html=1;absoluteArcSize=1;arcSize=14;strokeWidth=2;" vertex="1" parent="1">
          <mxGeometry x="1620" y="610" width="100" height="50" as="geometry" />
        </mxCell>
        <mxCell id="FsspF8Xs15yCbv-X96As-90" style="edgeStyle=orthogonalEdgeStyle;rounded=0;orthogonalLoop=1;jettySize=auto;html=1;exitX=0.5;exitY=1;exitDx=0;exitDy=0;entryX=0.5;entryY=0;entryDx=0;entryDy=0;" edge="1" parent="1" source="FsspF8Xs15yCbv-X96As-79" target="FsspF8Xs15yCbv-X96As-81">
          <mxGeometry relative="1" as="geometry" />
        </mxCell>
        <mxCell id="FsspF8Xs15yCbv-X96As-79" value="List Sentimen-Hashtags" style="shape=parallelogram;html=1;strokeWidth=2;perimeter=parallelogramPerimeter;whiteSpace=wrap;rounded=1;arcSize=12;size=0.23;" vertex="1" parent="1">
          <mxGeometry x="1610" y="680" width="120" height="40" as="geometry" />
        </mxCell>
        <mxCell id="FsspF8Xs15yCbv-X96As-91" style="edgeStyle=orthogonalEdgeStyle;rounded=0;orthogonalLoop=1;jettySize=auto;html=1;exitX=0.5;exitY=1;exitDx=0;exitDy=0;entryX=0.5;entryY=0;entryDx=0;entryDy=0;" edge="1" parent="1" source="FsspF8Xs15yCbv-X96As-81" target="FsspF8Xs15yCbv-X96As-83">
          <mxGeometry relative="1" as="geometry" />
        </mxCell>
        <mxCell id="FsspF8Xs15yCbv-X96As-92" style="edgeStyle=orthogonalEdgeStyle;rounded=0;orthogonalLoop=1;jettySize=auto;html=1;exitX=0.5;exitY=1;exitDx=0;exitDy=0;entryX=0.5;entryY=0;entryDx=0;entryDy=0;" edge="1" parent="1" source="FsspF8Xs15yCbv-X96As-81" target="FsspF8Xs15yCbv-X96As-82">
          <mxGeometry relative="1" as="geometry" />
        </mxCell>
        <mxCell id="FsspF8Xs15yCbv-X96As-93" style="edgeStyle=orthogonalEdgeStyle;rounded=0;orthogonalLoop=1;jettySize=auto;html=1;exitX=0.5;exitY=1;exitDx=0;exitDy=0;entryX=0.5;entryY=0;entryDx=0;entryDy=0;" edge="1" parent="1" source="FsspF8Xs15yCbv-X96As-81" target="FsspF8Xs15yCbv-X96As-84">
          <mxGeometry relative="1" as="geometry" />
        </mxCell>
        <mxCell id="FsspF8Xs15yCbv-X96As-81" value="&lt;div&gt;Sampling &amp;amp; Assign&lt;/div&gt;&lt;div&gt;Sentimen Data Latih&lt;/div&gt;" style="rounded=1;whiteSpace=wrap;html=1;absoluteArcSize=1;arcSize=14;strokeWidth=2;" vertex="1" parent="1">
          <mxGeometry x="1345" y="760" width="130" height="40" as="geometry" />
        </mxCell>
        <mxCell id="FsspF8Xs15yCbv-X96As-100" style="edgeStyle=orthogonalEdgeStyle;rounded=0;orthogonalLoop=1;jettySize=auto;html=1;exitX=0.5;exitY=1;exitDx=0;exitDy=0;" edge="1" parent="1" source="FsspF8Xs15yCbv-X96As-82" target="FsspF8Xs15yCbv-X96As-95">
          <mxGeometry relative="1" as="geometry" />
        </mxCell>
        <mxCell id="FsspF8Xs15yCbv-X96As-82" value="&lt;div&gt;Dataset Latih&lt;/div&gt;&lt;div&gt;Paslon 1&lt;/div&gt;" style="shape=parallelogram;html=1;strokeWidth=2;perimeter=parallelogramPerimeter;whiteSpace=wrap;rounded=1;arcSize=12;size=0.23;" vertex="1" parent="1">
          <mxGeometry x="1230" y="840" width="120" height="40" as="geometry" />
        </mxCell>
        <mxCell id="FsspF8Xs15yCbv-X96As-101" style="edgeStyle=orthogonalEdgeStyle;rounded=0;orthogonalLoop=1;jettySize=auto;html=1;exitX=0.5;exitY=1;exitDx=0;exitDy=0;entryX=0.5;entryY=0;entryDx=0;entryDy=0;" edge="1" parent="1" source="FsspF8Xs15yCbv-X96As-83" target="FsspF8Xs15yCbv-X96As-94">
          <mxGeometry relative="1" as="geometry" />
        </mxCell>
        <mxCell id="FsspF8Xs15yCbv-X96As-83" value="&lt;div&gt;Dataset Latih&lt;/div&gt;&lt;div&gt;Paslon 2&lt;br&gt;&lt;/div&gt;" style="shape=parallelogram;html=1;strokeWidth=2;perimeter=parallelogramPerimeter;whiteSpace=wrap;rounded=1;arcSize=12;size=0.23;" vertex="1" parent="1">
          <mxGeometry x="1350" y="840" width="120" height="40" as="geometry" />
        </mxCell>
        <mxCell id="FsspF8Xs15yCbv-X96As-102" style="edgeStyle=orthogonalEdgeStyle;rounded=0;orthogonalLoop=1;jettySize=auto;html=1;exitX=0.5;exitY=1;exitDx=0;exitDy=0;entryX=0.5;entryY=0;entryDx=0;entryDy=0;" edge="1" parent="1" source="FsspF8Xs15yCbv-X96As-84" target="FsspF8Xs15yCbv-X96As-96">
          <mxGeometry relative="1" as="geometry" />
        </mxCell>
        <mxCell id="FsspF8Xs15yCbv-X96As-84" value="&lt;div&gt;Dataset Latih&lt;/div&gt;&lt;div&gt;Paslon 3&lt;br&gt;&lt;/div&gt;" style="shape=parallelogram;html=1;strokeWidth=2;perimeter=parallelogramPerimeter;whiteSpace=wrap;rounded=1;arcSize=12;size=0.23;" vertex="1" parent="1">
          <mxGeometry x="1470" y="840" width="120" height="40" as="geometry" />
        </mxCell>
        <mxCell id="FsspF8Xs15yCbv-X96As-107" value="" style="edgeStyle=orthogonalEdgeStyle;rounded=0;orthogonalLoop=1;jettySize=auto;html=1;" edge="1" parent="1" source="FsspF8Xs15yCbv-X96As-94" target="FsspF8Xs15yCbv-X96As-97">
          <mxGeometry relative="1" as="geometry" />
        </mxCell>
        <mxCell id="FsspF8Xs15yCbv-X96As-94" value="Train Model&lt;br&gt;IndoBERTweet 2" style="rounded=1;whiteSpace=wrap;html=1;absoluteArcSize=1;arcSize=14;strokeWidth=2;" vertex="1" parent="1">
          <mxGeometry x="1360" y="900" width="100" height="40" as="geometry" />
        </mxCell>
        <mxCell id="FsspF8Xs15yCbv-X96As-95" value="Train Model&lt;br&gt;IndoBERTweet 1" style="rounded=1;whiteSpace=wrap;html=1;absoluteArcSize=1;arcSize=14;strokeWidth=2;" vertex="1" parent="1">
          <mxGeometry x="1240" y="900" width="100" height="40" as="geometry" />
        </mxCell>
        <mxCell id="FsspF8Xs15yCbv-X96As-96" value="Train Model&lt;br&gt;IndoBERTweet 3" style="rounded=1;whiteSpace=wrap;html=1;absoluteArcSize=1;arcSize=14;strokeWidth=2;" vertex="1" parent="1">
          <mxGeometry x="1480" y="900" width="100" height="40" as="geometry" />
        </mxCell>
        <mxCell id="FsspF8Xs15yCbv-X96As-123" style="edgeStyle=orthogonalEdgeStyle;rounded=0;orthogonalLoop=1;jettySize=auto;html=1;exitX=0.5;exitY=1;exitDx=0;exitDy=0;entryX=0;entryY=0.5;entryDx=0;entryDy=0;" edge="1" parent="1" source="FsspF8Xs15yCbv-X96As-97" target="FsspF8Xs15yCbv-X96As-118">
          <mxGeometry relative="1" as="geometry" />
        </mxCell>
        <mxCell id="FsspF8Xs15yCbv-X96As-97" value="Model Klasifikasi Sentimen 2" style="shape=parallelogram;html=1;strokeWidth=2;perimeter=parallelogramPerimeter;whiteSpace=wrap;rounded=1;arcSize=12;size=0.23;" vertex="1" parent="1">
          <mxGeometry x="1345" y="960" width="130" height="50" as="geometry" />
        </mxCell>
        <mxCell id="FsspF8Xs15yCbv-X96As-122" style="edgeStyle=orthogonalEdgeStyle;rounded=0;orthogonalLoop=1;jettySize=auto;html=1;exitX=0.5;exitY=1;exitDx=0;exitDy=0;entryX=0;entryY=0.5;entryDx=0;entryDy=0;" edge="1" parent="1" source="FsspF8Xs15yCbv-X96As-98" target="FsspF8Xs15yCbv-X96As-118">
          <mxGeometry relative="1" as="geometry" />
        </mxCell>
        <mxCell id="FsspF8Xs15yCbv-X96As-98" value="Model Klasifikasi Sentimen 1" style="shape=parallelogram;html=1;strokeWidth=2;perimeter=parallelogramPerimeter;whiteSpace=wrap;rounded=1;arcSize=12;size=0.23;" vertex="1" parent="1">
          <mxGeometry x="1222.5" y="960" width="135" height="50" as="geometry" />
        </mxCell>
        <mxCell id="FsspF8Xs15yCbv-X96As-124" style="edgeStyle=orthogonalEdgeStyle;rounded=0;orthogonalLoop=1;jettySize=auto;html=1;exitX=0.5;exitY=1;exitDx=0;exitDy=0;entryX=0;entryY=0.5;entryDx=0;entryDy=0;" edge="1" parent="1" source="FsspF8Xs15yCbv-X96As-99" target="FsspF8Xs15yCbv-X96As-118">
          <mxGeometry relative="1" as="geometry" />
        </mxCell>
        <mxCell id="FsspF8Xs15yCbv-X96As-99" value="Model Klasifikasi Sentimen 3" style="shape=parallelogram;html=1;strokeWidth=2;perimeter=parallelogramPerimeter;whiteSpace=wrap;rounded=1;arcSize=12;size=0.23;" vertex="1" parent="1">
          <mxGeometry x="1465" y="960" width="130" height="50" as="geometry" />
        </mxCell>
        <mxCell id="FsspF8Xs15yCbv-X96As-114" style="edgeStyle=orthogonalEdgeStyle;rounded=0;orthogonalLoop=1;jettySize=auto;html=1;exitX=0.5;exitY=1;exitDx=0;exitDy=0;entryX=0.571;entryY=0;entryDx=0;entryDy=0;entryPerimeter=0;" edge="1" parent="1">
          <mxGeometry relative="1" as="geometry">
            <mxPoint x="1529.8600000000001" y="940" as="sourcePoint" />
            <mxPoint x="1529.8600000000001" y="960" as="targetPoint" />
          </mxGeometry>
        </mxCell>
        <mxCell id="FsspF8Xs15yCbv-X96As-115" style="edgeStyle=orthogonalEdgeStyle;rounded=0;orthogonalLoop=1;jettySize=auto;html=1;exitX=0.5;exitY=1;exitDx=0;exitDy=0;entryX=0.571;entryY=0;entryDx=0;entryDy=0;entryPerimeter=0;" edge="1" parent="1">
          <mxGeometry relative="1" as="geometry">
            <mxPoint x="1289.9" y="940" as="sourcePoint" />
            <mxPoint x="1289.9" y="960" as="targetPoint" />
          </mxGeometry>
        </mxCell>
        <mxCell id="FsspF8Xs15yCbv-X96As-117" style="edgeStyle=orthogonalEdgeStyle;rounded=0;orthogonalLoop=1;jettySize=auto;html=1;exitX=1;exitY=0.5;exitDx=0;exitDy=0;entryX=0;entryY=0.5;entryDx=0;entryDy=0;" edge="1" parent="1" source="FsspF8Xs15yCbv-X96As-118" target="FsspF8Xs15yCbv-X96As-119">
          <mxGeometry relative="1" as="geometry" />
        </mxCell>
        <mxCell id="FsspF8Xs15yCbv-X96As-118" value="&lt;div&gt;Klasifikasi Sentimen&lt;br&gt;&lt;/div&gt;" style="rounded=1;whiteSpace=wrap;html=1;absoluteArcSize=1;arcSize=14;strokeWidth=2;" vertex="1" parent="1">
          <mxGeometry x="1600" y="1020" width="100" height="40" as="geometry" />
        </mxCell>
        <mxCell id="FsspF8Xs15yCbv-X96As-119" value="Hasil Klasifikasi" style="shape=parallelogram;html=1;strokeWidth=2;perimeter=parallelogramPerimeter;whiteSpace=wrap;rounded=1;arcSize=12;size=0.23;" vertex="1" parent="1">
          <mxGeometry x="1720" y="1020" width="120" height="40" as="geometry" />
        </mxCell>
        <mxCell id="BHhyjXsii5wQs29tYsD8-5" value="" style="edgeStyle=orthogonalEdgeStyle;rounded=0;orthogonalLoop=1;jettySize=auto;html=1;" edge="1" parent="1" source="FsspF8Xs15yCbv-X96As-127" target="FsspF8Xs15yCbv-X96As-130">
          <mxGeometry relative="1" as="geometry" />
        </mxCell>
        <mxCell id="FsspF8Xs15yCbv-X96As-127" value="&lt;div&gt;Data Twit&lt;/div&gt;&lt;div&gt;Bersih 2&lt;br&gt;&lt;/div&gt;" style="shape=parallelogram;html=1;strokeWidth=2;perimeter=parallelogramPerimeter;whiteSpace=wrap;rounded=1;arcSize=12;size=0.23;" vertex="1" parent="1">
          <mxGeometry x="1120" y="1280" width="90" height="40" as="geometry" />
        </mxCell>
        <mxCell id="BHhyjXsii5wQs29tYsD8-4" value="" style="edgeStyle=orthogonalEdgeStyle;rounded=0;orthogonalLoop=1;jettySize=auto;html=1;" edge="1" parent="1" source="FsspF8Xs15yCbv-X96As-130" target="FsspF8Xs15yCbv-X96As-142">
          <mxGeometry relative="1" as="geometry" />
        </mxCell>
        <mxCell id="FsspF8Xs15yCbv-X96As-130" value="Topic Modeling dengan LDA" style="rounded=1;whiteSpace=wrap;html=1;absoluteArcSize=1;arcSize=14;strokeWidth=2;" vertex="1" parent="1">
          <mxGeometry x="1230" y="1280" width="120" height="40" as="geometry" />
        </mxCell>
        <mxCell id="FsspF8Xs15yCbv-X96As-156" style="edgeStyle=orthogonalEdgeStyle;rounded=0;orthogonalLoop=1;jettySize=auto;html=1;exitX=1;exitY=0.5;exitDx=0;exitDy=0;entryX=0;entryY=0.5;entryDx=0;entryDy=0;" edge="1" parent="1" source="FsspF8Xs15yCbv-X96As-142" target="FsspF8Xs15yCbv-X96As-155">
          <mxGeometry relative="1" as="geometry" />
        </mxCell>
        <mxCell id="FsspF8Xs15yCbv-X96As-142" value="&lt;div&gt;Hasil Keyterm&amp;nbsp;&lt;/div&gt;&lt;div&gt;dan Topik&lt;br&gt;&lt;/div&gt;" style="shape=parallelogram;html=1;strokeWidth=2;perimeter=parallelogramPerimeter;whiteSpace=wrap;rounded=1;arcSize=12;size=0.23;" vertex="1" parent="1">
          <mxGeometry x="1370" y="1280" width="140" height="40" as="geometry" />
        </mxCell>
        <mxCell id="FsspF8Xs15yCbv-X96As-154" value="&lt;div&gt;Hasil Topik&lt;/div&gt;" style="shape=parallelogram;html=1;strokeWidth=2;perimeter=parallelogramPerimeter;whiteSpace=wrap;rounded=1;arcSize=12;size=0.23;" vertex="1" parent="1">
          <mxGeometry x="1660" y="1280" width="100" height="40" as="geometry" />
        </mxCell>
        <mxCell id="FsspF8Xs15yCbv-X96As-157" value="" style="edgeStyle=orthogonalEdgeStyle;rounded=0;orthogonalLoop=1;jettySize=auto;html=1;" edge="1" parent="1" source="FsspF8Xs15yCbv-X96As-155" target="FsspF8Xs15yCbv-X96As-154">
          <mxGeometry relative="1" as="geometry" />
        </mxCell>
        <mxCell id="FsspF8Xs15yCbv-X96As-155" value="Clustering Data Berdasarkan Topik" style="rounded=1;whiteSpace=wrap;html=1;absoluteArcSize=1;arcSize=14;strokeWidth=2;" vertex="1" parent="1">
          <mxGeometry x="1530" y="1280" width="110" height="40" as="geometry" />
        </mxCell>
        <mxCell id="Rwy1jw5e0Je4j8jJhAhE-6" style="edgeStyle=orthogonalEdgeStyle;rounded=0;orthogonalLoop=1;jettySize=auto;html=1;exitX=0.5;exitY=1;exitDx=0;exitDy=0;entryX=0.5;entryY=0;entryDx=0;entryDy=0;" edge="1" parent="1" source="Rwy1jw5e0Je4j8jJhAhE-1" target="Rwy1jw5e0Je4j8jJhAhE-3">
          <mxGeometry relative="1" as="geometry" />
        </mxCell>
        <mxCell id="Rwy1jw5e0Je4j8jJhAhE-7" style="edgeStyle=orthogonalEdgeStyle;rounded=0;orthogonalLoop=1;jettySize=auto;html=1;exitX=0.5;exitY=1;exitDx=0;exitDy=0;entryX=0.5;entryY=0;entryDx=0;entryDy=0;" edge="1" parent="1" source="Rwy1jw5e0Je4j8jJhAhE-1" target="Rwy1jw5e0Je4j8jJhAhE-5">
          <mxGeometry relative="1" as="geometry" />
        </mxCell>
        <mxCell id="Rwy1jw5e0Je4j8jJhAhE-1" value="&lt;div&gt;Ekstraksi Fitur&lt;/div&gt;" style="rounded=1;whiteSpace=wrap;html=1;absoluteArcSize=1;arcSize=14;strokeWidth=2;" vertex="1" parent="1">
          <mxGeometry x="1090" y="40" width="100" height="40" as="geometry" />
        </mxCell>
        <mxCell id="Rwy1jw5e0Je4j8jJhAhE-8" style="edgeStyle=orthogonalEdgeStyle;rounded=0;orthogonalLoop=1;jettySize=auto;html=1;exitX=0.5;exitY=1;exitDx=0;exitDy=0;entryX=0.5;entryY=0;entryDx=0;entryDy=0;" edge="1" parent="1" source="Rwy1jw5e0Je4j8jJhAhE-3" target="FsspF8Xs15yCbv-X96As-34">
          <mxGeometry relative="1" as="geometry" />
        </mxCell>
        <mxCell id="Rwy1jw5e0Je4j8jJhAhE-3" value="&lt;div&gt;Fitur&lt;/div&gt;&lt;div&gt;Graf Twit&lt;/div&gt;" style="shape=parallelogram;html=1;strokeWidth=2;perimeter=parallelogramPerimeter;whiteSpace=wrap;rounded=1;arcSize=12;size=0.23;" vertex="1" parent="1">
          <mxGeometry x="970" y="120" width="110" height="40" as="geometry" />
        </mxCell>
        <mxCell id="Rwy1jw5e0Je4j8jJhAhE-11" style="edgeStyle=orthogonalEdgeStyle;rounded=0;orthogonalLoop=1;jettySize=auto;html=1;exitX=0.5;exitY=1;exitDx=0;exitDy=0;entryX=0.5;entryY=0;entryDx=0;entryDy=0;" edge="1" parent="1" source="Rwy1jw5e0Je4j8jJhAhE-4" target="FsspF8Xs15yCbv-X96As-34">
          <mxGeometry relative="1" as="geometry" />
        </mxCell>
        <mxCell id="Rwy1jw5e0Je4j8jJhAhE-4" value="&lt;div&gt;Fitur&amp;nbsp;&lt;/div&gt;&lt;div&gt;Non-Teks Twit&lt;/div&gt;" style="shape=parallelogram;html=1;strokeWidth=2;perimeter=parallelogramPerimeter;whiteSpace=wrap;rounded=1;arcSize=12;size=0.23;" vertex="1" parent="1">
          <mxGeometry x="1085" y="120" width="110" height="40" as="geometry" />
        </mxCell>
        <mxCell id="Rwy1jw5e0Je4j8jJhAhE-12" style="edgeStyle=orthogonalEdgeStyle;rounded=0;orthogonalLoop=1;jettySize=auto;html=1;exitX=0.5;exitY=1;exitDx=0;exitDy=0;entryX=0.5;entryY=0;entryDx=0;entryDy=0;" edge="1" parent="1" source="Rwy1jw5e0Je4j8jJhAhE-5" target="FsspF8Xs15yCbv-X96As-35">
          <mxGeometry relative="1" as="geometry" />
        </mxCell>
        <mxCell id="Rwy1jw5e0Je4j8jJhAhE-5" value="&lt;div&gt;Fitur&lt;/div&gt;&lt;div&gt;Teks Twit&lt;/div&gt;" style="shape=parallelogram;html=1;strokeWidth=2;perimeter=parallelogramPerimeter;whiteSpace=wrap;rounded=1;arcSize=12;size=0.23;" vertex="1" parent="1">
          <mxGeometry x="1200" y="120" width="110" height="40" as="geometry" />
        </mxCell>
        <mxCell id="Y4FOxHYZlBw9ExC_oan0-1" value="" style="edgeStyle=orthogonalEdgeStyle;rounded=0;orthogonalLoop=1;jettySize=auto;html=1;" edge="1" parent="1" source="Y4FOxHYZlBw9ExC_oan0-2" target="Y4FOxHYZlBw9ExC_oan0-5">
          <mxGeometry relative="1" as="geometry" />
        </mxCell>
        <mxCell id="Y4FOxHYZlBw9ExC_oan0-2" value="&lt;div&gt;Data Twit&lt;/div&gt;&lt;div&gt;Bersih&lt;br&gt;&lt;/div&gt;" style="shape=parallelogram;html=1;strokeWidth=2;perimeter=parallelogramPerimeter;whiteSpace=wrap;rounded=1;arcSize=12;size=0.23;" vertex="1" parent="1">
          <mxGeometry x="1718" y="150" width="90" height="40" as="geometry" />
        </mxCell>
        <mxCell id="Y4FOxHYZlBw9ExC_oan0-4" value="" style="edgeStyle=orthogonalEdgeStyle;rounded=0;orthogonalLoop=1;jettySize=auto;html=1;" edge="1" parent="1" source="Y4FOxHYZlBw9ExC_oan0-5" target="Y4FOxHYZlBw9ExC_oan0-17">
          <mxGeometry relative="1" as="geometry" />
        </mxCell>
        <mxCell id="Y4FOxHYZlBw9ExC_oan0-5" value="&lt;div&gt;Pembuatan&lt;/div&gt;&lt;div&gt;Data Latih&lt;/div&gt;" style="rounded=1;whiteSpace=wrap;html=1;absoluteArcSize=1;arcSize=14;strokeWidth=2;" vertex="1" parent="1">
          <mxGeometry x="1828" y="150" width="80" height="40" as="geometry" />
        </mxCell>
        <mxCell id="Y4FOxHYZlBw9ExC_oan0-30" style="edgeStyle=orthogonalEdgeStyle;rounded=0;orthogonalLoop=1;jettySize=auto;html=1;exitX=1;exitY=0.5;exitDx=0;exitDy=0;entryX=0;entryY=0.5;entryDx=0;entryDy=0;" edge="1" parent="1" source="Y4FOxHYZlBw9ExC_oan0-7" target="8qAcYMwvwBXrb3QPoUOK-2">
          <mxGeometry relative="1" as="geometry">
            <Array as="points">
              <mxPoint x="2280" y="200" />
              <mxPoint x="2280" y="170" />
            </Array>
          </mxGeometry>
        </mxCell>
        <mxCell id="Y4FOxHYZlBw9ExC_oan0-7" value="&lt;div&gt;Train Model&lt;/div&gt;&lt;div&gt;XG-Boost&lt;br&gt;&lt;/div&gt;" style="rounded=1;whiteSpace=wrap;html=1;absoluteArcSize=1;arcSize=14;strokeWidth=2;" vertex="1" parent="1">
          <mxGeometry x="2168" y="180" width="100" height="40" as="geometry" />
        </mxCell>
        <mxCell id="Y4FOxHYZlBw9ExC_oan0-33" style="edgeStyle=orthogonalEdgeStyle;rounded=0;orthogonalLoop=1;jettySize=auto;html=1;exitX=1;exitY=0.5;exitDx=0;exitDy=0;entryX=0;entryY=0.5;entryDx=0;entryDy=0;" edge="1" parent="1" source="8qAcYMwvwBXrb3QPoUOK-2" target="Y4FOxHYZlBw9ExC_oan0-11">
          <mxGeometry relative="1" as="geometry" />
        </mxCell>
        <mxCell id="Y4FOxHYZlBw9ExC_oan0-9" value="&lt;div&gt;Train Model IndoBERTweet&lt;/div&gt;" style="rounded=1;whiteSpace=wrap;html=1;absoluteArcSize=1;arcSize=14;strokeWidth=2;" vertex="1" parent="1">
          <mxGeometry x="2168" y="120" width="100" height="40" as="geometry" />
        </mxCell>
        <mxCell id="Y4FOxHYZlBw9ExC_oan0-11" value="&lt;div&gt;Hybrid Model&lt;/div&gt;&lt;div&gt;Deteksi Buzzer&lt;/div&gt;" style="shape=parallelogram;html=1;strokeWidth=2;perimeter=parallelogramPerimeter;whiteSpace=wrap;rounded=1;arcSize=12;size=0.23;" vertex="1" parent="1">
          <mxGeometry x="2410" y="150" width="120" height="40" as="geometry" />
        </mxCell>
        <mxCell id="Y4FOxHYZlBw9ExC_oan0-24" style="edgeStyle=orthogonalEdgeStyle;rounded=0;orthogonalLoop=1;jettySize=auto;html=1;exitX=1;exitY=0.5;exitDx=0;exitDy=0;entryX=0;entryY=0.5;entryDx=0;entryDy=0;" edge="1" parent="1" source="Y4FOxHYZlBw9ExC_oan0-17" target="Y4FOxHYZlBw9ExC_oan0-23">
          <mxGeometry relative="1" as="geometry">
            <Array as="points">
              <mxPoint x="2010" y="170" />
              <mxPoint x="2010" y="110" />
            </Array>
          </mxGeometry>
        </mxCell>
        <mxCell id="Y4FOxHYZlBw9ExC_oan0-25" style="edgeStyle=orthogonalEdgeStyle;rounded=0;orthogonalLoop=1;jettySize=auto;html=1;exitX=1;exitY=0.5;exitDx=0;exitDy=0;entryX=0;entryY=0.5;entryDx=0;entryDy=0;" edge="1" parent="1" source="Y4FOxHYZlBw9ExC_oan0-17" target="Y4FOxHYZlBw9ExC_oan0-21">
          <mxGeometry relative="1" as="geometry" />
        </mxCell>
        <mxCell id="Y4FOxHYZlBw9ExC_oan0-26" style="edgeStyle=orthogonalEdgeStyle;rounded=0;orthogonalLoop=1;jettySize=auto;html=1;exitX=1;exitY=0.5;exitDx=0;exitDy=0;entryX=0;entryY=0.5;entryDx=0;entryDy=0;" edge="1" parent="1" source="Y4FOxHYZlBw9ExC_oan0-17" target="Y4FOxHYZlBw9ExC_oan0-19">
          <mxGeometry relative="1" as="geometry">
            <Array as="points">
              <mxPoint x="2010" y="170" />
              <mxPoint x="2010" y="230" />
            </Array>
          </mxGeometry>
        </mxCell>
        <mxCell id="Y4FOxHYZlBw9ExC_oan0-17" value="&lt;div&gt;Ekstraksi&lt;/div&gt;&lt;div&gt;Fitur&lt;/div&gt;" style="rounded=1;whiteSpace=wrap;html=1;absoluteArcSize=1;arcSize=14;strokeWidth=2;" vertex="1" parent="1">
          <mxGeometry x="1928" y="150" width="70" height="40" as="geometry" />
        </mxCell>
        <mxCell id="Y4FOxHYZlBw9ExC_oan0-29" style="edgeStyle=orthogonalEdgeStyle;rounded=0;orthogonalLoop=1;jettySize=auto;html=1;exitX=1;exitY=0.5;exitDx=0;exitDy=0;entryX=0;entryY=0.5;entryDx=0;entryDy=0;" edge="1" parent="1" source="Y4FOxHYZlBw9ExC_oan0-19" target="Y4FOxHYZlBw9ExC_oan0-7">
          <mxGeometry relative="1" as="geometry">
            <Array as="points">
              <mxPoint x="2148" y="230" />
              <mxPoint x="2148" y="200" />
            </Array>
          </mxGeometry>
        </mxCell>
        <mxCell id="Y4FOxHYZlBw9ExC_oan0-19" value="&lt;div&gt;Fitur&lt;/div&gt;&lt;div&gt;Graf Twit&lt;/div&gt;" style="shape=parallelogram;html=1;strokeWidth=2;perimeter=parallelogramPerimeter;whiteSpace=wrap;rounded=1;arcSize=12;size=0.23;" vertex="1" parent="1">
          <mxGeometry x="2020" y="210" width="120" height="40" as="geometry" />
        </mxCell>
        <mxCell id="Y4FOxHYZlBw9ExC_oan0-28" style="edgeStyle=orthogonalEdgeStyle;rounded=0;orthogonalLoop=1;jettySize=auto;html=1;exitX=1;exitY=0.5;exitDx=0;exitDy=0;entryX=0;entryY=0.5;entryDx=0;entryDy=0;" edge="1" parent="1" source="Y4FOxHYZlBw9ExC_oan0-21" target="Y4FOxHYZlBw9ExC_oan0-7">
          <mxGeometry relative="1" as="geometry">
            <Array as="points">
              <mxPoint x="2148" y="170" />
              <mxPoint x="2148" y="200" />
            </Array>
          </mxGeometry>
        </mxCell>
        <mxCell id="Y4FOxHYZlBw9ExC_oan0-21" value="&lt;div&gt;Fitur&amp;nbsp;&lt;/div&gt;&lt;div&gt;Non-Teks Twit&lt;/div&gt;" style="shape=parallelogram;html=1;strokeWidth=2;perimeter=parallelogramPerimeter;whiteSpace=wrap;rounded=1;arcSize=12;size=0.23;" vertex="1" parent="1">
          <mxGeometry x="2020" y="150" width="120" height="40" as="geometry" />
        </mxCell>
        <mxCell id="Y4FOxHYZlBw9ExC_oan0-27" style="edgeStyle=orthogonalEdgeStyle;rounded=0;orthogonalLoop=1;jettySize=auto;html=1;exitX=1;exitY=0.5;exitDx=0;exitDy=0;entryX=0;entryY=0.5;entryDx=0;entryDy=0;" edge="1" parent="1" source="Y4FOxHYZlBw9ExC_oan0-23" target="Y4FOxHYZlBw9ExC_oan0-9">
          <mxGeometry relative="1" as="geometry">
            <Array as="points">
              <mxPoint x="2148" y="110" />
              <mxPoint x="2148" y="140" />
            </Array>
          </mxGeometry>
        </mxCell>
        <mxCell id="Y4FOxHYZlBw9ExC_oan0-23" value="&lt;div&gt;Fitur&lt;/div&gt;&lt;div&gt;Teks Twit&lt;/div&gt;" style="shape=parallelogram;html=1;strokeWidth=2;perimeter=parallelogramPerimeter;whiteSpace=wrap;rounded=1;arcSize=12;size=0.23;" vertex="1" parent="1">
          <mxGeometry x="2020" y="90" width="120" height="40" as="geometry" />
        </mxCell>
        <mxCell id="8qAcYMwvwBXrb3QPoUOK-6" value="" style="edgeStyle=orthogonalEdgeStyle;rounded=0;orthogonalLoop=1;jettySize=auto;html=1;exitX=1;exitY=0.5;exitDx=0;exitDy=0;entryX=0;entryY=0.5;entryDx=0;entryDy=0;" edge="1" parent="1" source="Y4FOxHYZlBw9ExC_oan0-9" target="8qAcYMwvwBXrb3QPoUOK-2">
          <mxGeometry relative="1" as="geometry">
            <mxPoint x="2268" y="140" as="sourcePoint" />
            <mxPoint x="2444" y="170" as="targetPoint" />
            <Array as="points">
              <mxPoint x="2280" y="140" />
              <mxPoint x="2280" y="170" />
            </Array>
          </mxGeometry>
        </mxCell>
        <mxCell id="8qAcYMwvwBXrb3QPoUOK-2" value="Penggabungan&lt;br&gt;Hasil Prediksi" style="rounded=1;whiteSpace=wrap;html=1;absoluteArcSize=1;arcSize=14;strokeWidth=2;" vertex="1" parent="1">
          <mxGeometry x="2300" y="150" width="100" height="40" as="geometry" />
        </mxCell>
      </root>
    </mxGraphModel>
  </diagram>
  <diagram id="peecrfGSj-P5SjcXitWs" name="Graf Ilustrasi">
    <mxGraphModel grid="1" page="1" gridSize="10" guides="1" tooltips="1" connect="1" arrows="1" fold="1" pageScale="1" pageWidth="850" pageHeight="1100" math="0" shadow="0">
      <root>
        <mxCell id="0" />
        <mxCell id="1" parent="0" />
        <mxCell id="ag3o0QMBGfAbABhssChX-1" value="" style="ellipse;whiteSpace=wrap;html=1;" vertex="1" parent="1">
          <mxGeometry x="305" y="205" width="60" height="60" as="geometry" />
        </mxCell>
        <mxCell id="ag3o0QMBGfAbABhssChX-2" value="A" style="text;html=1;align=center;verticalAlign=middle;whiteSpace=wrap;rounded=0;fontSize=32;" vertex="1" parent="1">
          <mxGeometry x="312.5" y="220" width="45" height="30" as="geometry" />
        </mxCell>
        <mxCell id="ag3o0QMBGfAbABhssChX-3" value="" style="ellipse;whiteSpace=wrap;html=1;" vertex="1" parent="1">
          <mxGeometry x="245" y="330" width="60" height="60" as="geometry" />
        </mxCell>
        <mxCell id="ag3o0QMBGfAbABhssChX-4" value="C" style="text;html=1;align=center;verticalAlign=middle;whiteSpace=wrap;rounded=0;fontSize=32;" vertex="1" parent="1">
          <mxGeometry x="252.5" y="345" width="45" height="30" as="geometry" />
        </mxCell>
        <mxCell id="ag3o0QMBGfAbABhssChX-5" value="" style="ellipse;whiteSpace=wrap;html=1;" vertex="1" parent="1">
          <mxGeometry x="357.5" y="285" width="60" height="60" as="geometry" />
        </mxCell>
        <mxCell id="ag3o0QMBGfAbABhssChX-6" value="B" style="text;html=1;align=center;verticalAlign=middle;whiteSpace=wrap;rounded=0;fontSize=32;" vertex="1" parent="1">
          <mxGeometry x="365" y="300" width="45" height="30" as="geometry" />
        </mxCell>
        <mxCell id="ag3o0QMBGfAbABhssChX-7" value="" style="shape=flexArrow;endArrow=classic;html=1;rounded=0;" edge="1" parent="1">
          <mxGeometry width="50" height="50" relative="1" as="geometry">
            <mxPoint x="450" y="319.17" as="sourcePoint" />
            <mxPoint x="530" y="320" as="targetPoint" />
          </mxGeometry>
        </mxCell>
        <mxCell id="c51Is1QBSiQYWp4jcldM-1" value="&lt;font style=&quot;font-size: 16px;&quot;&gt;Perhitungan Fuzzy Similarity&lt;/font&gt;" style="text;html=1;align=center;verticalAlign=middle;whiteSpace=wrap;rounded=0;" vertex="1" parent="1">
          <mxGeometry x="425" y="260" width="130" height="30" as="geometry" />
        </mxCell>
        <mxCell id="c51Is1QBSiQYWp4jcldM-2" value="pemilu bukan hanya tentang memilih, tapi juga tentang memilih yang terbaik bersama jnk dan capres ganjar pranowo mahfud md.j-jn20bl #jnk #ganjarmahfudrebound #ganjarpranowopilihanumat #tabrakprof" style="text;html=1;align=left;verticalAlign=middle;whiteSpace=wrap;rounded=0;" vertex="1" parent="1">
          <mxGeometry x="430" y="70" width="592.5" height="30" as="geometry" />
        </mxCell>
        <mxCell id="c51Is1QBSiQYWp4jcldM-3" value="A:" style="text;html=1;align=center;verticalAlign=middle;whiteSpace=wrap;rounded=0;" vertex="1" parent="1">
          <mxGeometry x="370" y="70" width="60" height="30" as="geometry" />
        </mxCell>
        <mxCell id="c51Is1QBSiQYWp4jcldM-4" value="&lt;div&gt;rt pemilu bukan hanya tentang memilih, tapi juga tentang memilih yang terbaik bersama jnk dan ganjar pranowo mahfud md. jn19v5 #jnk #ganjarmahfudrebound #ganjarpranowopilihanumat [re rebekahsau64515]&lt;/div&gt;" style="text;html=1;align=left;verticalAlign=middle;whiteSpace=wrap;rounded=0;" vertex="1" parent="1">
          <mxGeometry x="430" y="110" width="582.5" height="30" as="geometry" />
        </mxCell>
        <mxCell id="c51Is1QBSiQYWp4jcldM-5" value="B:" style="text;html=1;align=center;verticalAlign=middle;whiteSpace=wrap;rounded=0;" vertex="1" parent="1">
          <mxGeometry x="370" y="110" width="60" height="30" as="geometry" />
        </mxCell>
        <mxCell id="c51Is1QBSiQYWp4jcldM-6" value="betul top, bersama pbowogbran yespasti rakyat punya kepercayaan utk mendapat keinginan besar ketika mendapat pengakuan yang luar biasa. #kitamudamakin02 capeklihat carajahat" style="text;html=1;align=left;verticalAlign=middle;whiteSpace=wrap;rounded=0;" vertex="1" parent="1">
          <mxGeometry x="430" y="150" width="602.5" height="30" as="geometry" />
        </mxCell>
        <mxCell id="c51Is1QBSiQYWp4jcldM-7" value="C:" style="text;html=1;align=center;verticalAlign=middle;whiteSpace=wrap;rounded=0;" vertex="1" parent="1">
          <mxGeometry x="370" y="150" width="60" height="30" as="geometry" />
        </mxCell>
        <mxCell id="c51Is1QBSiQYWp4jcldM-37" value="" style="group" connectable="0" vertex="1" parent="1">
          <mxGeometry x="560" y="200" width="197" height="190" as="geometry" />
        </mxCell>
        <mxCell id="c51Is1QBSiQYWp4jcldM-8" value="" style="shape=table;startSize=0;container=1;collapsible=0;childLayout=tableLayout;fontSize=16;fillColor=none;" vertex="1" parent="c51Is1QBSiQYWp4jcldM-37">
          <mxGeometry x="50" y="70" width="140" height="120" as="geometry" />
        </mxCell>
        <mxCell id="c51Is1QBSiQYWp4jcldM-9" value="" style="shape=tableRow;horizontal=0;startSize=0;swimlaneHead=0;swimlaneBody=0;strokeColor=inherit;top=0;left=0;bottom=0;right=0;collapsible=0;dropTarget=0;fillColor=none;points=[[0,0.5],[1,0.5]];portConstraint=eastwest;fontSize=16;" vertex="1" parent="c51Is1QBSiQYWp4jcldM-8">
          <mxGeometry width="140" height="40" as="geometry" />
        </mxCell>
        <mxCell id="c51Is1QBSiQYWp4jcldM-10" value="" style="shape=partialRectangle;html=1;whiteSpace=wrap;connectable=0;strokeColor=inherit;overflow=hidden;fillColor=none;top=0;left=0;bottom=0;right=0;pointerEvents=1;fontSize=16;" vertex="1" parent="c51Is1QBSiQYWp4jcldM-9">
          <mxGeometry width="47" height="40" as="geometry">
            <mxRectangle width="47" height="40" as="alternateBounds" />
          </mxGeometry>
        </mxCell>
        <mxCell id="c51Is1QBSiQYWp4jcldM-11" value="" style="shape=partialRectangle;html=1;whiteSpace=wrap;connectable=0;strokeColor=inherit;overflow=hidden;fillColor=none;top=0;left=0;bottom=0;right=0;pointerEvents=1;fontSize=16;" vertex="1" parent="c51Is1QBSiQYWp4jcldM-9">
          <mxGeometry x="47" width="46" height="40" as="geometry">
            <mxRectangle width="46" height="40" as="alternateBounds" />
          </mxGeometry>
        </mxCell>
        <mxCell id="c51Is1QBSiQYWp4jcldM-12" value="" style="shape=partialRectangle;html=1;whiteSpace=wrap;connectable=0;strokeColor=inherit;overflow=hidden;fillColor=none;top=0;left=0;bottom=0;right=0;pointerEvents=1;fontSize=16;" vertex="1" parent="c51Is1QBSiQYWp4jcldM-9">
          <mxGeometry x="93" width="47" height="40" as="geometry">
            <mxRectangle width="47" height="40" as="alternateBounds" />
          </mxGeometry>
        </mxCell>
        <mxCell id="c51Is1QBSiQYWp4jcldM-13" value="" style="shape=tableRow;horizontal=0;startSize=0;swimlaneHead=0;swimlaneBody=0;strokeColor=inherit;top=0;left=0;bottom=0;right=0;collapsible=0;dropTarget=0;fillColor=none;points=[[0,0.5],[1,0.5]];portConstraint=eastwest;fontSize=16;" vertex="1" parent="c51Is1QBSiQYWp4jcldM-8">
          <mxGeometry y="40" width="140" height="40" as="geometry" />
        </mxCell>
        <mxCell id="c51Is1QBSiQYWp4jcldM-14" value="" style="shape=partialRectangle;html=1;whiteSpace=wrap;connectable=0;strokeColor=inherit;overflow=hidden;fillColor=none;top=0;left=0;bottom=0;right=0;pointerEvents=1;fontSize=16;" vertex="1" parent="c51Is1QBSiQYWp4jcldM-13">
          <mxGeometry width="47" height="40" as="geometry">
            <mxRectangle width="47" height="40" as="alternateBounds" />
          </mxGeometry>
        </mxCell>
        <mxCell id="c51Is1QBSiQYWp4jcldM-15" value="" style="shape=partialRectangle;html=1;whiteSpace=wrap;connectable=0;strokeColor=inherit;overflow=hidden;fillColor=none;top=0;left=0;bottom=0;right=0;pointerEvents=1;fontSize=16;" vertex="1" parent="c51Is1QBSiQYWp4jcldM-13">
          <mxGeometry x="47" width="46" height="40" as="geometry">
            <mxRectangle width="46" height="40" as="alternateBounds" />
          </mxGeometry>
        </mxCell>
        <mxCell id="c51Is1QBSiQYWp4jcldM-16" value="" style="shape=partialRectangle;html=1;whiteSpace=wrap;connectable=0;strokeColor=inherit;overflow=hidden;fillColor=none;top=0;left=0;bottom=0;right=0;pointerEvents=1;fontSize=16;" vertex="1" parent="c51Is1QBSiQYWp4jcldM-13">
          <mxGeometry x="93" width="47" height="40" as="geometry">
            <mxRectangle width="47" height="40" as="alternateBounds" />
          </mxGeometry>
        </mxCell>
        <mxCell id="c51Is1QBSiQYWp4jcldM-17" value="" style="shape=tableRow;horizontal=0;startSize=0;swimlaneHead=0;swimlaneBody=0;strokeColor=inherit;top=0;left=0;bottom=0;right=0;collapsible=0;dropTarget=0;fillColor=none;points=[[0,0.5],[1,0.5]];portConstraint=eastwest;fontSize=16;" vertex="1" parent="c51Is1QBSiQYWp4jcldM-8">
          <mxGeometry y="80" width="140" height="40" as="geometry" />
        </mxCell>
        <mxCell id="c51Is1QBSiQYWp4jcldM-18" value="" style="shape=partialRectangle;html=1;whiteSpace=wrap;connectable=0;strokeColor=inherit;overflow=hidden;fillColor=none;top=0;left=0;bottom=0;right=0;pointerEvents=1;fontSize=16;" vertex="1" parent="c51Is1QBSiQYWp4jcldM-17">
          <mxGeometry width="47" height="40" as="geometry">
            <mxRectangle width="47" height="40" as="alternateBounds" />
          </mxGeometry>
        </mxCell>
        <mxCell id="c51Is1QBSiQYWp4jcldM-19" value="" style="shape=partialRectangle;html=1;whiteSpace=wrap;connectable=0;strokeColor=inherit;overflow=hidden;fillColor=none;top=0;left=0;bottom=0;right=0;pointerEvents=1;fontSize=16;" vertex="1" parent="c51Is1QBSiQYWp4jcldM-17">
          <mxGeometry x="47" width="46" height="40" as="geometry">
            <mxRectangle width="46" height="40" as="alternateBounds" />
          </mxGeometry>
        </mxCell>
        <mxCell id="c51Is1QBSiQYWp4jcldM-20" value="" style="shape=partialRectangle;html=1;whiteSpace=wrap;connectable=0;strokeColor=inherit;overflow=hidden;fillColor=none;top=0;left=0;bottom=0;right=0;pointerEvents=1;fontSize=16;" vertex="1" parent="c51Is1QBSiQYWp4jcldM-17">
          <mxGeometry x="93" width="47" height="40" as="geometry">
            <mxRectangle width="47" height="40" as="alternateBounds" />
          </mxGeometry>
        </mxCell>
        <mxCell id="c51Is1QBSiQYWp4jcldM-21" value="A&lt;span style=&quot;color: rgba(0, 0, 0, 0); font-family: monospace; font-size: 0px; text-align: start; text-wrap: nowrap;&quot;&gt;%3CmxGraphModel%3E%3Croot%3E%3CmxCell%20id%3D%220%22%2F%3E%3CmxCell%20id%3D%221%22%20parent%3D%220%22%2F%3E%3CmxCell%20id%3D%222%22%20value%3D%22A%3A%22%20style%3D%22text%3Bhtml%3D1%3Balign%3Dcenter%3BverticalAlign%3Dmiddle%3BwhiteSpace%3Dwrap%3Brounded%3D0%3B%22%20vertex%3D%221%22%20parent%3D%221%22%3E%3CmxGeometry%20x%3D%22237.5%22%20y%3D%22400%22%20width%3D%2260%22%20height%3D%2230%22%20as%3D%22geometry%22%2F%3E%3C%2FmxCell%3E%3C%2Froot%3E%3C%2FmxGraphModel%3E&lt;/span&gt;" style="text;html=1;align=center;verticalAlign=middle;whiteSpace=wrap;rounded=0;" vertex="1" parent="c51Is1QBSiQYWp4jcldM-37">
          <mxGeometry y="75" width="60" height="30" as="geometry" />
        </mxCell>
        <mxCell id="c51Is1QBSiQYWp4jcldM-22" value="B" style="text;html=1;align=center;verticalAlign=middle;whiteSpace=wrap;rounded=0;" vertex="1" parent="c51Is1QBSiQYWp4jcldM-37">
          <mxGeometry y="115" width="60" height="30" as="geometry" />
        </mxCell>
        <mxCell id="c51Is1QBSiQYWp4jcldM-23" value="C" style="text;html=1;align=center;verticalAlign=middle;whiteSpace=wrap;rounded=0;" vertex="1" parent="c51Is1QBSiQYWp4jcldM-37">
          <mxGeometry y="155" width="60" height="30" as="geometry" />
        </mxCell>
        <mxCell id="c51Is1QBSiQYWp4jcldM-24" value="C" style="text;html=1;align=center;verticalAlign=middle;whiteSpace=wrap;rounded=0;" vertex="1" parent="c51Is1QBSiQYWp4jcldM-37">
          <mxGeometry x="137" y="40" width="60" height="30" as="geometry" />
        </mxCell>
        <mxCell id="c51Is1QBSiQYWp4jcldM-25" value="B" style="text;html=1;align=center;verticalAlign=middle;whiteSpace=wrap;rounded=0;" vertex="1" parent="c51Is1QBSiQYWp4jcldM-37">
          <mxGeometry x="90" y="40" width="60" height="30" as="geometry" />
        </mxCell>
        <mxCell id="c51Is1QBSiQYWp4jcldM-26" value="A&lt;span style=&quot;color: rgba(0, 0, 0, 0); font-family: monospace; font-size: 0px; text-align: start; text-wrap: nowrap;&quot;&gt;%3CmxGraphModel%3E%3Croot%3E%3CmxCell%20id%3D%220%22%2F%3E%3CmxCell%20id%3D%221%22%20parent%3D%220%22%2F%3E%3CmxCell%20id%3D%222%22%20value%3D%22A%3A%22%20style%3D%22text%3Bhtml%3D1%3Balign%3Dcenter%3BverticalAlign%3Dmiddle%3BwhiteSpace%3Dwrap%3Brounded%3D0%3B%22%20vertex%3D%221%22%20parent%3D%221%22%3E%3CmxGeometry%20x%3D%22237.5%22%20y%3D%22400%22%20width%3D%2260%22%20height%3D%2230%22%20as%3D%22geometry%22%2F%3E%3C%2FmxCell%3E%3C%2Froot%3E%3C%2FmxGraphModel%3E&lt;/span&gt;" style="text;html=1;align=center;verticalAlign=middle;whiteSpace=wrap;rounded=0;" vertex="1" parent="c51Is1QBSiQYWp4jcldM-37">
          <mxGeometry x="42" y="40" width="60" height="30" as="geometry" />
        </mxCell>
        <mxCell id="c51Is1QBSiQYWp4jcldM-27" value="0,88" style="text;html=1;align=center;verticalAlign=middle;whiteSpace=wrap;rounded=0;" vertex="1" parent="c51Is1QBSiQYWp4jcldM-37">
          <mxGeometry x="47" y="115" width="50" height="30" as="geometry" />
        </mxCell>
        <mxCell id="c51Is1QBSiQYWp4jcldM-28" value="0,88" style="text;html=1;align=center;verticalAlign=middle;whiteSpace=wrap;rounded=0;" vertex="1" parent="c51Is1QBSiQYWp4jcldM-37">
          <mxGeometry x="95" y="75" width="50" height="30" as="geometry" />
        </mxCell>
        <mxCell id="c51Is1QBSiQYWp4jcldM-29" value="1" style="text;html=1;align=center;verticalAlign=middle;whiteSpace=wrap;rounded=0;" vertex="1" parent="c51Is1QBSiQYWp4jcldM-37">
          <mxGeometry x="43" y="75" width="60" height="30" as="geometry" />
        </mxCell>
        <mxCell id="c51Is1QBSiQYWp4jcldM-30" value="1" style="text;html=1;align=center;verticalAlign=middle;whiteSpace=wrap;rounded=0;" vertex="1" parent="c51Is1QBSiQYWp4jcldM-37">
          <mxGeometry x="90" y="115" width="60" height="30" as="geometry" />
        </mxCell>
        <mxCell id="c51Is1QBSiQYWp4jcldM-31" value="1" style="text;html=1;align=center;verticalAlign=middle;whiteSpace=wrap;rounded=0;" vertex="1" parent="c51Is1QBSiQYWp4jcldM-37">
          <mxGeometry x="137" y="155" width="60" height="30" as="geometry" />
        </mxCell>
        <mxCell id="c51Is1QBSiQYWp4jcldM-32" value="0,39" style="text;html=1;align=center;verticalAlign=middle;whiteSpace=wrap;rounded=0;" vertex="1" parent="c51Is1QBSiQYWp4jcldM-37">
          <mxGeometry x="48" y="155" width="50" height="30" as="geometry" />
        </mxCell>
        <mxCell id="c51Is1QBSiQYWp4jcldM-33" value="0,39" style="text;html=1;align=center;verticalAlign=middle;whiteSpace=wrap;rounded=0;" vertex="1" parent="c51Is1QBSiQYWp4jcldM-37">
          <mxGeometry x="141" y="75" width="50" height="30" as="geometry" />
        </mxCell>
        <mxCell id="c51Is1QBSiQYWp4jcldM-34" value="0,40" style="text;html=1;align=center;verticalAlign=middle;whiteSpace=wrap;rounded=0;" vertex="1" parent="c51Is1QBSiQYWp4jcldM-37">
          <mxGeometry x="95" y="155" width="50" height="30" as="geometry" />
        </mxCell>
        <mxCell id="c51Is1QBSiQYWp4jcldM-35" value="0,40" style="text;html=1;align=center;verticalAlign=middle;whiteSpace=wrap;rounded=0;" vertex="1" parent="c51Is1QBSiQYWp4jcldM-37">
          <mxGeometry x="141" y="115" width="50" height="30" as="geometry" />
        </mxCell>
        <mxCell id="c51Is1QBSiQYWp4jcldM-36" value="&lt;font style=&quot;font-size: 12px;&quot;&gt;Matriks Similaritas&lt;/font&gt;" style="text;html=1;align=center;verticalAlign=middle;whiteSpace=wrap;rounded=0;" vertex="1" parent="c51Is1QBSiQYWp4jcldM-37">
          <mxGeometry x="55" width="130" height="30" as="geometry" />
        </mxCell>
        <mxCell id="c51Is1QBSiQYWp4jcldM-39" value="" style="ellipse;whiteSpace=wrap;html=1;" vertex="1" parent="1">
          <mxGeometry x="930" y="200" width="60" height="60" as="geometry" />
        </mxCell>
        <mxCell id="c51Is1QBSiQYWp4jcldM-40" value="A" style="text;html=1;align=center;verticalAlign=middle;whiteSpace=wrap;rounded=0;fontSize=32;" vertex="1" parent="1">
          <mxGeometry x="937.5" y="215" width="45" height="30" as="geometry" />
        </mxCell>
        <mxCell id="c51Is1QBSiQYWp4jcldM-41" value="" style="ellipse;whiteSpace=wrap;html=1;" vertex="1" parent="1">
          <mxGeometry x="870" y="325" width="60" height="60" as="geometry" />
        </mxCell>
        <mxCell id="c51Is1QBSiQYWp4jcldM-42" value="C" style="text;html=1;align=center;verticalAlign=middle;whiteSpace=wrap;rounded=0;fontSize=32;" vertex="1" parent="1">
          <mxGeometry x="877.5" y="340" width="45" height="30" as="geometry" />
        </mxCell>
        <mxCell id="c51Is1QBSiQYWp4jcldM-43" value="" style="ellipse;whiteSpace=wrap;html=1;" vertex="1" parent="1">
          <mxGeometry x="982.5" y="280" width="60" height="60" as="geometry" />
        </mxCell>
        <mxCell id="c51Is1QBSiQYWp4jcldM-44" value="B" style="text;html=1;align=center;verticalAlign=middle;whiteSpace=wrap;rounded=0;fontSize=32;" vertex="1" parent="1">
          <mxGeometry x="990" y="295" width="45" height="30" as="geometry" />
        </mxCell>
        <mxCell id="c51Is1QBSiQYWp4jcldM-45" value="" style="shape=flexArrow;endArrow=classic;html=1;rounded=0;" edge="1" parent="1">
          <mxGeometry width="50" height="50" relative="1" as="geometry">
            <mxPoint x="780" y="319.17" as="sourcePoint" />
            <mxPoint x="860" y="320" as="targetPoint" />
          </mxGeometry>
        </mxCell>
        <mxCell id="c51Is1QBSiQYWp4jcldM-46" value="" style="endArrow=none;html=1;rounded=0;entryX=0.752;entryY=0.936;entryDx=0;entryDy=0;exitX=0.222;exitY=0.091;exitDx=0;exitDy=0;exitPerimeter=0;strokeWidth=6;entryPerimeter=0;" edge="1" parent="1" source="c51Is1QBSiQYWp4jcldM-43" target="c51Is1QBSiQYWp4jcldM-39">
          <mxGeometry width="50" height="50" relative="1" as="geometry">
            <mxPoint x="1000" y="360" as="sourcePoint" />
            <mxPoint x="1050" y="310" as="targetPoint" />
          </mxGeometry>
        </mxCell>
        <mxCell id="c51Is1QBSiQYWp4jcldM-48" value="&lt;font style=&quot;font-size: 16px;&quot;&gt;Penambahan Edges&lt;/font&gt;" style="text;html=1;align=center;verticalAlign=middle;whiteSpace=wrap;rounded=0;" vertex="1" parent="1">
          <mxGeometry x="750" y="260" width="130" height="30" as="geometry" />
        </mxCell>
        <mxCell id="c51Is1QBSiQYWp4jcldM-51" value="" style="shape=flexArrow;endArrow=classic;html=1;rounded=0;" edge="1" parent="1">
          <mxGeometry width="50" height="50" relative="1" as="geometry">
            <mxPoint x="360" y="130" as="sourcePoint" />
            <mxPoint x="320" y="190" as="targetPoint" />
            <Array as="points">
              <mxPoint x="320" y="130" />
            </Array>
          </mxGeometry>
        </mxCell>
        <mxCell id="c51Is1QBSiQYWp4jcldM-52" value="&lt;font style=&quot;font-size: 16px;&quot;&gt;Pembentukan&lt;br&gt;Node&lt;/font&gt;" style="text;html=1;align=center;verticalAlign=middle;whiteSpace=wrap;rounded=0;" vertex="1" parent="1">
          <mxGeometry x="210" y="100" width="130" height="30" as="geometry" />
        </mxCell>
        <mxCell id="xl3UDlUubAaLWLNL5fiA-1" value="" style="ellipse;whiteSpace=wrap;html=1;fillColor=#2f72c2;strokeColor=#2f72c2;" vertex="1" parent="1">
          <mxGeometry x="295" y="660" width="60" height="60" as="geometry" />
        </mxCell>
        <mxCell id="xl3UDlUubAaLWLNL5fiA-2" value="A" style="text;html=1;align=center;verticalAlign=middle;whiteSpace=wrap;rounded=0;fontSize=32;" vertex="1" parent="1">
          <mxGeometry x="302.5" y="675" width="45" height="30" as="geometry" />
        </mxCell>
        <mxCell id="xl3UDlUubAaLWLNL5fiA-3" value="" style="ellipse;whiteSpace=wrap;html=1;strokeColor=#dfb486;fillColor=#dfb486;fillStyle=auto;fontColor=#ffffff;" vertex="1" parent="1">
          <mxGeometry x="252.5" y="760" width="60" height="60" as="geometry" />
        </mxCell>
        <mxCell id="xl3UDlUubAaLWLNL5fiA-4" value="C" style="text;html=1;align=center;verticalAlign=middle;whiteSpace=wrap;rounded=0;fontSize=32;" vertex="1" parent="1">
          <mxGeometry x="260" y="775" width="45" height="30" as="geometry" />
        </mxCell>
        <mxCell id="xl3UDlUubAaLWLNL5fiA-5" value="" style="ellipse;whiteSpace=wrap;html=1;strokeColor=#46ac54;fillColor=#46ac54;" vertex="1" parent="1">
          <mxGeometry x="347.5" y="740" width="60" height="60" as="geometry" />
        </mxCell>
        <mxCell id="xl3UDlUubAaLWLNL5fiA-6" value="B" style="text;html=1;align=center;verticalAlign=middle;whiteSpace=wrap;rounded=0;fontSize=32;" vertex="1" parent="1">
          <mxGeometry x="355" y="755" width="45" height="30" as="geometry" />
        </mxCell>
        <mxCell id="xl3UDlUubAaLWLNL5fiA-45" value="" style="ellipse;whiteSpace=wrap;html=1;fillColor=#2f72c2;strokeColor=#2f72c2;" vertex="1" parent="1">
          <mxGeometry x="920" y="655" width="60" height="60" as="geometry" />
        </mxCell>
        <mxCell id="xl3UDlUubAaLWLNL5fiA-46" value="A" style="text;html=1;align=center;verticalAlign=middle;whiteSpace=wrap;rounded=0;fontSize=32;" vertex="1" parent="1">
          <mxGeometry x="927.5" y="670" width="45" height="30" as="geometry" />
        </mxCell>
        <mxCell id="xl3UDlUubAaLWLNL5fiA-47" value="" style="ellipse;whiteSpace=wrap;html=1;fillColor=#dfb486;strokeColor=#dfb486;" vertex="1" parent="1">
          <mxGeometry x="877.5" y="755" width="60" height="60" as="geometry" />
        </mxCell>
        <mxCell id="xl3UDlUubAaLWLNL5fiA-48" value="C" style="text;html=1;align=center;verticalAlign=middle;whiteSpace=wrap;rounded=0;fontSize=32;" vertex="1" parent="1">
          <mxGeometry x="885" y="770" width="45" height="30" as="geometry" />
        </mxCell>
        <mxCell id="xl3UDlUubAaLWLNL5fiA-49" value="" style="ellipse;whiteSpace=wrap;html=1;strokeColor=#46ac54;fillColor=#46ac54;" vertex="1" parent="1">
          <mxGeometry x="972.5" y="735" width="60" height="60" as="geometry" />
        </mxCell>
        <mxCell id="xl3UDlUubAaLWLNL5fiA-50" value="B" style="text;html=1;align=center;verticalAlign=middle;whiteSpace=wrap;rounded=0;fontSize=32;" vertex="1" parent="1">
          <mxGeometry x="980" y="750" width="45" height="30" as="geometry" />
        </mxCell>
        <mxCell id="xl3UDlUubAaLWLNL5fiA-52" value="" style="endArrow=none;html=1;rounded=0;entryX=0.752;entryY=0.936;entryDx=0;entryDy=0;exitX=0.222;exitY=0.091;exitDx=0;exitDy=0;exitPerimeter=0;strokeWidth=6;entryPerimeter=0;fillColor=#fa6800;strokeColor=#dedecd;" edge="1" parent="1" source="xl3UDlUubAaLWLNL5fiA-49" target="xl3UDlUubAaLWLNL5fiA-45">
          <mxGeometry width="50" height="50" relative="1" as="geometry">
            <mxPoint x="990" y="815" as="sourcePoint" />
            <mxPoint x="1040" y="765" as="targetPoint" />
          </mxGeometry>
        </mxCell>
        <mxCell id="xl3UDlUubAaLWLNL5fiA-16" value="" style="shape=table;startSize=0;container=1;collapsible=0;childLayout=tableLayout;fontSize=16;" vertex="1" parent="1">
          <mxGeometry x="600" y="700" width="140" height="120" as="geometry" />
        </mxCell>
        <mxCell id="xl3UDlUubAaLWLNL5fiA-17" value="" style="shape=tableRow;horizontal=0;startSize=0;swimlaneHead=0;swimlaneBody=0;strokeColor=inherit;top=0;left=0;bottom=0;right=0;collapsible=0;dropTarget=0;fillColor=none;points=[[0,0.5],[1,0.5]];portConstraint=eastwest;fontSize=16;" vertex="1" parent="xl3UDlUubAaLWLNL5fiA-16">
          <mxGeometry width="140" height="40" as="geometry" />
        </mxCell>
        <mxCell id="xl3UDlUubAaLWLNL5fiA-18" value="" style="shape=partialRectangle;html=1;whiteSpace=wrap;connectable=0;strokeColor=inherit;overflow=hidden;fillColor=none;top=0;left=0;bottom=0;right=0;pointerEvents=1;fontSize=16;" vertex="1" parent="xl3UDlUubAaLWLNL5fiA-17">
          <mxGeometry width="47" height="40" as="geometry">
            <mxRectangle width="47" height="40" as="alternateBounds" />
          </mxGeometry>
        </mxCell>
        <mxCell id="xl3UDlUubAaLWLNL5fiA-19" value="" style="shape=partialRectangle;html=1;whiteSpace=wrap;connectable=0;strokeColor=inherit;overflow=hidden;fillColor=none;top=0;left=0;bottom=0;right=0;pointerEvents=1;fontSize=16;" vertex="1" parent="xl3UDlUubAaLWLNL5fiA-17">
          <mxGeometry x="47" width="46" height="40" as="geometry">
            <mxRectangle width="46" height="40" as="alternateBounds" />
          </mxGeometry>
        </mxCell>
        <mxCell id="xl3UDlUubAaLWLNL5fiA-20" value="" style="shape=partialRectangle;html=1;whiteSpace=wrap;connectable=0;strokeColor=inherit;overflow=hidden;fillColor=none;top=0;left=0;bottom=0;right=0;pointerEvents=1;fontSize=16;" vertex="1" parent="xl3UDlUubAaLWLNL5fiA-17">
          <mxGeometry x="93" width="47" height="40" as="geometry">
            <mxRectangle width="47" height="40" as="alternateBounds" />
          </mxGeometry>
        </mxCell>
        <mxCell id="xl3UDlUubAaLWLNL5fiA-21" value="" style="shape=tableRow;horizontal=0;startSize=0;swimlaneHead=0;swimlaneBody=0;strokeColor=inherit;top=0;left=0;bottom=0;right=0;collapsible=0;dropTarget=0;fillColor=none;points=[[0,0.5],[1,0.5]];portConstraint=eastwest;fontSize=16;" vertex="1" parent="xl3UDlUubAaLWLNL5fiA-16">
          <mxGeometry y="40" width="140" height="40" as="geometry" />
        </mxCell>
        <mxCell id="xl3UDlUubAaLWLNL5fiA-22" value="" style="shape=partialRectangle;html=1;whiteSpace=wrap;connectable=0;strokeColor=inherit;overflow=hidden;fillColor=none;top=0;left=0;bottom=0;right=0;pointerEvents=1;fontSize=16;" vertex="1" parent="xl3UDlUubAaLWLNL5fiA-21">
          <mxGeometry width="47" height="40" as="geometry">
            <mxRectangle width="47" height="40" as="alternateBounds" />
          </mxGeometry>
        </mxCell>
        <mxCell id="xl3UDlUubAaLWLNL5fiA-23" value="" style="shape=partialRectangle;html=1;whiteSpace=wrap;connectable=0;strokeColor=inherit;overflow=hidden;fillColor=none;top=0;left=0;bottom=0;right=0;pointerEvents=1;fontSize=16;" vertex="1" parent="xl3UDlUubAaLWLNL5fiA-21">
          <mxGeometry x="47" width="46" height="40" as="geometry">
            <mxRectangle width="46" height="40" as="alternateBounds" />
          </mxGeometry>
        </mxCell>
        <mxCell id="xl3UDlUubAaLWLNL5fiA-24" value="" style="shape=partialRectangle;html=1;whiteSpace=wrap;connectable=0;strokeColor=inherit;overflow=hidden;fillColor=none;top=0;left=0;bottom=0;right=0;pointerEvents=1;fontSize=16;" vertex="1" parent="xl3UDlUubAaLWLNL5fiA-21">
          <mxGeometry x="93" width="47" height="40" as="geometry">
            <mxRectangle width="47" height="40" as="alternateBounds" />
          </mxGeometry>
        </mxCell>
        <mxCell id="xl3UDlUubAaLWLNL5fiA-25" value="" style="shape=tableRow;horizontal=0;startSize=0;swimlaneHead=0;swimlaneBody=0;strokeColor=inherit;top=0;left=0;bottom=0;right=0;collapsible=0;dropTarget=0;fillColor=none;points=[[0,0.5],[1,0.5]];portConstraint=eastwest;fontSize=16;" vertex="1" parent="xl3UDlUubAaLWLNL5fiA-16">
          <mxGeometry y="80" width="140" height="40" as="geometry" />
        </mxCell>
        <mxCell id="xl3UDlUubAaLWLNL5fiA-26" value="" style="shape=partialRectangle;html=1;whiteSpace=wrap;connectable=0;strokeColor=inherit;overflow=hidden;fillColor=none;top=0;left=0;bottom=0;right=0;pointerEvents=1;fontSize=16;" vertex="1" parent="xl3UDlUubAaLWLNL5fiA-25">
          <mxGeometry width="47" height="40" as="geometry">
            <mxRectangle width="47" height="40" as="alternateBounds" />
          </mxGeometry>
        </mxCell>
        <mxCell id="xl3UDlUubAaLWLNL5fiA-27" value="" style="shape=partialRectangle;html=1;whiteSpace=wrap;connectable=0;strokeColor=inherit;overflow=hidden;fillColor=none;top=0;left=0;bottom=0;right=0;pointerEvents=1;fontSize=16;" vertex="1" parent="xl3UDlUubAaLWLNL5fiA-25">
          <mxGeometry x="47" width="46" height="40" as="geometry">
            <mxRectangle width="46" height="40" as="alternateBounds" />
          </mxGeometry>
        </mxCell>
        <mxCell id="xl3UDlUubAaLWLNL5fiA-28" value="" style="shape=partialRectangle;html=1;whiteSpace=wrap;connectable=0;strokeColor=inherit;overflow=hidden;fillColor=none;top=0;left=0;bottom=0;right=0;pointerEvents=1;fontSize=16;" vertex="1" parent="xl3UDlUubAaLWLNL5fiA-25">
          <mxGeometry x="93" width="47" height="40" as="geometry">
            <mxRectangle width="47" height="40" as="alternateBounds" />
          </mxGeometry>
        </mxCell>
        <mxCell id="xl3UDlUubAaLWLNL5fiA-29" value="A&lt;span style=&quot;color: rgba(0, 0, 0, 0); font-family: monospace; font-size: 0px; text-align: start; text-wrap: nowrap;&quot;&gt;%3CmxGraphModel%3E%3Croot%3E%3CmxCell%20id%3D%220%22%2F%3E%3CmxCell%20id%3D%221%22%20parent%3D%220%22%2F%3E%3CmxCell%20id%3D%222%22%20value%3D%22A%3A%22%20style%3D%22text%3Bhtml%3D1%3Balign%3Dcenter%3BverticalAlign%3Dmiddle%3BwhiteSpace%3Dwrap%3Brounded%3D0%3B%22%20vertex%3D%221%22%20parent%3D%221%22%3E%3CmxGeometry%20x%3D%22237.5%22%20y%3D%22400%22%20width%3D%2260%22%20height%3D%2230%22%20as%3D%22geometry%22%2F%3E%3C%2FmxCell%3E%3C%2Froot%3E%3C%2FmxGraphModel%3E&lt;/span&gt;" style="text;html=1;align=center;verticalAlign=middle;whiteSpace=wrap;rounded=0;" vertex="1" parent="1">
          <mxGeometry x="550" y="705" width="60" height="30" as="geometry" />
        </mxCell>
        <mxCell id="xl3UDlUubAaLWLNL5fiA-30" value="B" style="text;html=1;align=center;verticalAlign=middle;whiteSpace=wrap;rounded=0;" vertex="1" parent="1">
          <mxGeometry x="550" y="745" width="60" height="30" as="geometry" />
        </mxCell>
        <mxCell id="xl3UDlUubAaLWLNL5fiA-31" value="C" style="text;html=1;align=center;verticalAlign=middle;whiteSpace=wrap;rounded=0;" vertex="1" parent="1">
          <mxGeometry x="550" y="785" width="60" height="30" as="geometry" />
        </mxCell>
        <mxCell id="xl3UDlUubAaLWLNL5fiA-32" value="C" style="text;html=1;align=center;verticalAlign=middle;whiteSpace=wrap;rounded=0;" vertex="1" parent="1">
          <mxGeometry x="687" y="670" width="60" height="30" as="geometry" />
        </mxCell>
        <mxCell id="xl3UDlUubAaLWLNL5fiA-33" value="B" style="text;html=1;align=center;verticalAlign=middle;whiteSpace=wrap;rounded=0;" vertex="1" parent="1">
          <mxGeometry x="640" y="670" width="60" height="30" as="geometry" />
        </mxCell>
        <mxCell id="xl3UDlUubAaLWLNL5fiA-34" value="A&lt;span style=&quot;color: rgba(0, 0, 0, 0); font-family: monospace; font-size: 0px; text-align: start; text-wrap: nowrap;&quot;&gt;%3CmxGraphModel%3E%3Croot%3E%3CmxCell%20id%3D%220%22%2F%3E%3CmxCell%20id%3D%221%22%20parent%3D%220%22%2F%3E%3CmxCell%20id%3D%222%22%20value%3D%22A%3A%22%20style%3D%22text%3Bhtml%3D1%3Balign%3Dcenter%3BverticalAlign%3Dmiddle%3BwhiteSpace%3Dwrap%3Brounded%3D0%3B%22%20vertex%3D%221%22%20parent%3D%221%22%3E%3CmxGeometry%20x%3D%22237.5%22%20y%3D%22400%22%20width%3D%2260%22%20height%3D%2230%22%20as%3D%22geometry%22%2F%3E%3C%2FmxCell%3E%3C%2Froot%3E%3C%2FmxGraphModel%3E&lt;/span&gt;" style="text;html=1;align=center;verticalAlign=middle;whiteSpace=wrap;rounded=0;" vertex="1" parent="1">
          <mxGeometry x="592" y="670" width="60" height="30" as="geometry" />
        </mxCell>
        <mxCell id="xl3UDlUubAaLWLNL5fiA-35" value="88" style="text;html=1;align=center;verticalAlign=middle;whiteSpace=wrap;rounded=0;" vertex="1" parent="1">
          <mxGeometry x="597" y="745" width="50" height="30" as="geometry" />
        </mxCell>
        <mxCell id="xl3UDlUubAaLWLNL5fiA-36" value="88" style="text;html=1;align=center;verticalAlign=middle;whiteSpace=wrap;rounded=0;" vertex="1" parent="1">
          <mxGeometry x="645" y="705" width="50" height="30" as="geometry" />
        </mxCell>
        <mxCell id="xl3UDlUubAaLWLNL5fiA-37" value="100" style="text;html=1;align=center;verticalAlign=middle;whiteSpace=wrap;rounded=0;" vertex="1" parent="1">
          <mxGeometry x="593" y="705" width="60" height="30" as="geometry" />
        </mxCell>
        <mxCell id="xl3UDlUubAaLWLNL5fiA-38" value="100" style="text;html=1;align=center;verticalAlign=middle;whiteSpace=wrap;rounded=0;" vertex="1" parent="1">
          <mxGeometry x="640" y="745" width="60" height="30" as="geometry" />
        </mxCell>
        <mxCell id="xl3UDlUubAaLWLNL5fiA-39" value="100" style="text;html=1;align=center;verticalAlign=middle;whiteSpace=wrap;rounded=0;" vertex="1" parent="1">
          <mxGeometry x="687" y="785" width="60" height="30" as="geometry" />
        </mxCell>
        <mxCell id="xl3UDlUubAaLWLNL5fiA-40" value="39" style="text;html=1;align=center;verticalAlign=middle;whiteSpace=wrap;rounded=0;" vertex="1" parent="1">
          <mxGeometry x="598" y="785" width="50" height="30" as="geometry" />
        </mxCell>
        <mxCell id="-NEn8w-Y7nmPF3959X3I-4" value="" style="rounded=0;whiteSpace=wrap;html=1;fillColor=#dedecd;strokeColor=#dedecd;" vertex="1" parent="1">
          <mxGeometry x="648" y="701" width="44" height="38" as="geometry" />
        </mxCell>
        <mxCell id="xl3UDlUubAaLWLNL5fiA-41" value="39" style="text;html=1;align=center;verticalAlign=middle;whiteSpace=wrap;rounded=0;" vertex="1" parent="1">
          <mxGeometry x="691" y="705" width="50" height="30" as="geometry" />
        </mxCell>
        <mxCell id="xl3UDlUubAaLWLNL5fiA-42" value="40" style="text;html=1;align=center;verticalAlign=middle;whiteSpace=wrap;rounded=0;" vertex="1" parent="1">
          <mxGeometry x="645" y="785" width="50" height="30" as="geometry" />
        </mxCell>
        <mxCell id="xl3UDlUubAaLWLNL5fiA-43" value="40" style="text;html=1;align=center;verticalAlign=middle;whiteSpace=wrap;rounded=0;" vertex="1" parent="1">
          <mxGeometry x="691" y="745" width="50" height="30" as="geometry" />
        </mxCell>
        <mxCell id="-NEn8w-Y7nmPF3959X3I-6" value="" style="rounded=0;whiteSpace=wrap;html=1;fillColor=#dedecd;strokeColor=#dedecd;" vertex="1" parent="1">
          <mxGeometry x="601" y="741" width="45" height="38" as="geometry" />
        </mxCell>
        <mxCell id="-NEn8w-Y7nmPF3959X3I-7" value="88" style="text;html=1;align=center;verticalAlign=middle;whiteSpace=wrap;rounded=0;" vertex="1" parent="1">
          <mxGeometry x="645" y="705" width="50" height="30" as="geometry" />
        </mxCell>
        <mxCell id="-NEn8w-Y7nmPF3959X3I-8" value="88" style="text;html=1;align=center;verticalAlign=middle;whiteSpace=wrap;rounded=0;" vertex="1" parent="1">
          <mxGeometry x="598.5" y="745" width="50" height="30" as="geometry" />
        </mxCell>
      </root>
    </mxGraphModel>
  </diagram>
</mxfile>
